# vtk DataFile Version 2.0
MEF - Elasticidade Plana 2D
ASCII
DATASET UNSTRUCTURED_GRID
POINTS      205 float
  0.00000000E+00  0.10000000E+02  0.00000000E+00
  0.25000000E+01  0.10000000E+02  0.00000000E+00
  0.50000000E+01  0.10000000E+02  0.00000000E+00
  0.75000000E+01  0.10000000E+02  0.00000000E+00
  0.10000000E+02  0.10000000E+02  0.00000000E+00
  0.12500000E+02  0.10000000E+02  0.00000000E+00
  0.15000000E+02  0.10000000E+02  0.00000000E+00
  0.17500000E+02  0.10000000E+02  0.00000000E+00
  0.20000000E+02  0.10000000E+02  0.00000000E+00
  0.22500000E+02  0.10000000E+02  0.00000000E+00
  0.25000000E+02  0.10000000E+02  0.00000000E+00
  0.27500000E+02  0.10000000E+02  0.00000000E+00
  0.30000000E+02  0.10000000E+02  0.00000000E+00
  0.32500000E+02  0.10000000E+02  0.00000000E+00
  0.35000000E+02  0.10000000E+02  0.00000000E+00
  0.37500000E+02  0.10000000E+02  0.00000000E+00
  0.40000000E+02  0.10000000E+02  0.00000000E+00
  0.42500000E+02  0.10000000E+02  0.00000000E+00
  0.45000000E+02  0.10000000E+02  0.00000000E+00
  0.47500000E+02  0.10000000E+02  0.00000000E+00
  0.50000000E+02  0.10000000E+02  0.00000000E+00
  0.52500000E+02  0.10000000E+02  0.00000000E+00
  0.55000000E+02  0.10000000E+02  0.00000000E+00
  0.57500000E+02  0.10000000E+02  0.00000000E+00
  0.60000000E+02  0.10000000E+02  0.00000000E+00
  0.62500000E+02  0.10000000E+02  0.00000000E+00
  0.65000000E+02  0.10000000E+02  0.00000000E+00
  0.67500000E+02  0.10000000E+02  0.00000000E+00
  0.70000000E+02  0.10000000E+02  0.00000000E+00
  0.72500000E+02  0.10000000E+02  0.00000000E+00
  0.75000000E+02  0.10000000E+02  0.00000000E+00
  0.77500000E+02  0.10000000E+02  0.00000000E+00
  0.80000000E+02  0.10000000E+02  0.00000000E+00
  0.82500000E+02  0.10000000E+02  0.00000000E+00
  0.85000000E+02  0.10000000E+02  0.00000000E+00
  0.87500000E+02  0.10000000E+02  0.00000000E+00
  0.90000000E+02  0.10000000E+02  0.00000000E+00
  0.92500000E+02  0.10000000E+02  0.00000000E+00
  0.95000000E+02  0.10000000E+02  0.00000000E+00
  0.97500000E+02  0.10000000E+02  0.00000000E+00
  0.10000000E+03  0.10000000E+02  0.00000000E+00
  0.00000000E+00  0.75000000E+01  0.00000000E+00
  0.25000000E+01  0.75000000E+01  0.00000000E+00
  0.50000000E+01  0.75000000E+01  0.00000000E+00
  0.75000000E+01  0.75000000E+01  0.00000000E+00
  0.10000000E+02  0.75000000E+01  0.00000000E+00
  0.12500000E+02  0.75000000E+01  0.00000000E+00
  0.15000000E+02  0.75000000E+01  0.00000000E+00
  0.17500000E+02  0.75000000E+01  0.00000000E+00
  0.20000000E+02  0.75000000E+01  0.00000000E+00
  0.22500000E+02  0.75000000E+01  0.00000000E+00
  0.25000000E+02  0.75000000E+01  0.00000000E+00
  0.27500000E+02  0.75000000E+01  0.00000000E+00
  0.30000000E+02  0.75000000E+01  0.00000000E+00
  0.32500000E+02  0.75000000E+01  0.00000000E+00
  0.35000000E+02  0.75000000E+01  0.00000000E+00
  0.37500000E+02  0.75000000E+01  0.00000000E+00
  0.40000000E+02  0.75000000E+01  0.00000000E+00
  0.42500000E+02  0.75000000E+01  0.00000000E+00
  0.45000000E+02  0.75000000E+01  0.00000000E+00
  0.47500000E+02  0.75000000E+01  0.00000000E+00
  0.50000000E+02  0.75000000E+01  0.00000000E+00
  0.52500000E+02  0.75000000E+01  0.00000000E+00
  0.55000000E+02  0.75000000E+01  0.00000000E+00
  0.57500000E+02  0.75000000E+01  0.00000000E+00
  0.60000000E+02  0.75000000E+01  0.00000000E+00
  0.62500000E+02  0.75000000E+01  0.00000000E+00
  0.65000000E+02  0.75000000E+01  0.00000000E+00
  0.67500000E+02  0.75000000E+01  0.00000000E+00
  0.70000000E+02  0.75000000E+01  0.00000000E+00
  0.72500000E+02  0.75000000E+01  0.00000000E+00
  0.75000000E+02  0.75000000E+01  0.00000000E+00
  0.77500000E+02  0.75000000E+01  0.00000000E+00
  0.80000000E+02  0.75000000E+01  0.00000000E+00
  0.82500000E+02  0.75000000E+01  0.00000000E+00
  0.85000000E+02  0.75000000E+01  0.00000000E+00
  0.87500000E+02  0.75000000E+01  0.00000000E+00
  0.90000000E+02  0.75000000E+01  0.00000000E+00
  0.92500000E+02  0.75000000E+01  0.00000000E+00
  0.95000000E+02  0.75000000E+01  0.00000000E+00
  0.97500000E+02  0.75000000E+01  0.00000000E+00
  0.10000000E+03  0.75000000E+01  0.00000000E+00
  0.00000000E+00  0.50000000E+01  0.00000000E+00
  0.25000000E+01  0.50000000E+01  0.00000000E+00
  0.50000000E+01  0.50000000E+01  0.00000000E+00
  0.75000000E+01  0.50000000E+01  0.00000000E+00
  0.10000000E+02  0.50000000E+01  0.00000000E+00
  0.12500000E+02  0.50000000E+01  0.00000000E+00
  0.15000000E+02  0.50000000E+01  0.00000000E+00
  0.17500000E+02  0.50000000E+01  0.00000000E+00
  0.20000000E+02  0.50000000E+01  0.00000000E+00
  0.22500000E+02  0.50000000E+01  0.00000000E+00
  0.25000000E+02  0.50000000E+01  0.00000000E+00
  0.27500000E+02  0.50000000E+01  0.00000000E+00
  0.30000000E+02  0.50000000E+01  0.00000000E+00
  0.32500000E+02  0.50000000E+01  0.00000000E+00
  0.35000000E+02  0.50000000E+01  0.00000000E+00
  0.37500000E+02  0.50000000E+01  0.00000000E+00
  0.40000000E+02  0.50000000E+01  0.00000000E+00
  0.42500000E+02  0.50000000E+01  0.00000000E+00
  0.45000000E+02  0.50000000E+01  0.00000000E+00
  0.47500000E+02  0.50000000E+01  0.00000000E+00
  0.50000000E+02  0.50000000E+01  0.00000000E+00
  0.52500000E+02  0.50000000E+01  0.00000000E+00
  0.55000000E+02  0.50000000E+01  0.00000000E+00
  0.57500000E+02  0.50000000E+01  0.00000000E+00
  0.60000000E+02  0.50000000E+01  0.00000000E+00
  0.62500000E+02  0.50000000E+01  0.00000000E+00
  0.65000000E+02  0.50000000E+01  0.00000000E+00
  0.67500000E+02  0.50000000E+01  0.00000000E+00
  0.70000000E+02  0.50000000E+01  0.00000000E+00
  0.72500000E+02  0.50000000E+01  0.00000000E+00
  0.75000000E+02  0.50000000E+01  0.00000000E+00
  0.77500000E+02  0.50000000E+01  0.00000000E+00
  0.80000000E+02  0.50000000E+01  0.00000000E+00
  0.82500000E+02  0.50000000E+01  0.00000000E+00
  0.85000000E+02  0.50000000E+01  0.00000000E+00
  0.87500000E+02  0.50000000E+01  0.00000000E+00
  0.90000000E+02  0.50000000E+01  0.00000000E+00
  0.92500000E+02  0.50000000E+01  0.00000000E+00
  0.95000000E+02  0.50000000E+01  0.00000000E+00
  0.97500000E+02  0.50000000E+01  0.00000000E+00
  0.10000000E+03  0.50000000E+01  0.00000000E+00
  0.00000000E+00  0.25000000E+01  0.00000000E+00
  0.25000000E+01  0.25000000E+01  0.00000000E+00
  0.50000000E+01  0.25000000E+01  0.00000000E+00
  0.75000000E+01  0.25000000E+01  0.00000000E+00
  0.10000000E+02  0.25000000E+01  0.00000000E+00
  0.12500000E+02  0.25000000E+01  0.00000000E+00
  0.15000000E+02  0.25000000E+01  0.00000000E+00
  0.17500000E+02  0.25000000E+01  0.00000000E+00
  0.20000000E+02  0.25000000E+01  0.00000000E+00
  0.22500000E+02  0.25000000E+01  0.00000000E+00
  0.25000000E+02  0.25000000E+01  0.00000000E+00
  0.27500000E+02  0.25000000E+01  0.00000000E+00
  0.30000000E+02  0.25000000E+01  0.00000000E+00
  0.32500000E+02  0.25000000E+01  0.00000000E+00
  0.35000000E+02  0.25000000E+01  0.00000000E+00
  0.37500000E+02  0.25000000E+01  0.00000000E+00
  0.40000000E+02  0.25000000E+01  0.00000000E+00
  0.42500000E+02  0.25000000E+01  0.00000000E+00
  0.45000000E+02  0.25000000E+01  0.00000000E+00
  0.47500000E+02  0.25000000E+01  0.00000000E+00
  0.50000000E+02  0.25000000E+01  0.00000000E+00
  0.52500000E+02  0.25000000E+01  0.00000000E+00
  0.55000000E+02  0.25000000E+01  0.00000000E+00
  0.57500000E+02  0.25000000E+01  0.00000000E+00
  0.60000000E+02  0.25000000E+01  0.00000000E+00
  0.62500000E+02  0.25000000E+01  0.00000000E+00
  0.65000000E+02  0.25000000E+01  0.00000000E+00
  0.67500000E+02  0.25000000E+01  0.00000000E+00
  0.70000000E+02  0.25000000E+01  0.00000000E+00
  0.72500000E+02  0.25000000E+01  0.00000000E+00
  0.75000000E+02  0.25000000E+01  0.00000000E+00
  0.77500000E+02  0.25000000E+01  0.00000000E+00
  0.80000000E+02  0.25000000E+01  0.00000000E+00
  0.82500000E+02  0.25000000E+01  0.00000000E+00
  0.85000000E+02  0.25000000E+01  0.00000000E+00
  0.87500000E+02  0.25000000E+01  0.00000000E+00
  0.90000000E+02  0.25000000E+01  0.00000000E+00
  0.92500000E+02  0.25000000E+01  0.00000000E+00
  0.95000000E+02  0.25000000E+01  0.00000000E+00
  0.97500000E+02  0.25000000E+01  0.00000000E+00
  0.10000000E+03  0.25000000E+01  0.00000000E+00
  0.00000000E+00  0.00000000E+00  0.00000000E+00
  0.25000000E+01  0.00000000E+00  0.00000000E+00
  0.50000000E+01  0.00000000E+00  0.00000000E+00
  0.75000000E+01  0.00000000E+00  0.00000000E+00
  0.10000000E+02  0.00000000E+00  0.00000000E+00
  0.12500000E+02  0.00000000E+00  0.00000000E+00
  0.15000000E+02  0.00000000E+00  0.00000000E+00
  0.17500000E+02  0.00000000E+00  0.00000000E+00
  0.20000000E+02  0.00000000E+00  0.00000000E+00
  0.22500000E+02  0.00000000E+00  0.00000000E+00
  0.25000000E+02  0.00000000E+00  0.00000000E+00
  0.27500000E+02  0.00000000E+00  0.00000000E+00
  0.30000000E+02  0.00000000E+00  0.00000000E+00
  0.32500000E+02  0.00000000E+00  0.00000000E+00
  0.35000000E+02  0.00000000E+00  0.00000000E+00
  0.37500000E+02  0.00000000E+00  0.00000000E+00
  0.40000000E+02  0.00000000E+00  0.00000000E+00
  0.42500000E+02  0.00000000E+00  0.00000000E+00
  0.45000000E+02  0.00000000E+00  0.00000000E+00
  0.47500000E+02  0.00000000E+00  0.00000000E+00
  0.50000000E+02  0.00000000E+00  0.00000000E+00
  0.52500000E+02  0.00000000E+00  0.00000000E+00
  0.55000000E+02  0.00000000E+00  0.00000000E+00
  0.57500000E+02  0.00000000E+00  0.00000000E+00
  0.60000000E+02  0.00000000E+00  0.00000000E+00
  0.62500000E+02  0.00000000E+00  0.00000000E+00
  0.65000000E+02  0.00000000E+00  0.00000000E+00
  0.67500000E+02  0.00000000E+00  0.00000000E+00
  0.70000000E+02  0.00000000E+00  0.00000000E+00
  0.72500000E+02  0.00000000E+00  0.00000000E+00
  0.75000000E+02  0.00000000E+00  0.00000000E+00
  0.77500000E+02  0.00000000E+00  0.00000000E+00
  0.80000000E+02  0.00000000E+00  0.00000000E+00
  0.82500000E+02  0.00000000E+00  0.00000000E+00
  0.85000000E+02  0.00000000E+00  0.00000000E+00
  0.87500000E+02  0.00000000E+00  0.00000000E+00
  0.90000000E+02  0.00000000E+00  0.00000000E+00
  0.92500000E+02  0.00000000E+00  0.00000000E+00
  0.95000000E+02  0.00000000E+00  0.00000000E+00
  0.97500000E+02  0.00000000E+00  0.00000000E+00
  0.10000000E+03  0.00000000E+00  0.00000000E+00
CELLS      320    1280
       3       0      41      42
       3       0      42       1
       3       1      42      43
       3       1      43       2
       3       2      43      44
       3       2      44       3
       3       3      44      45
       3       3      45       4
       3       4      45      46
       3       4      46       5
       3       5      46      47
       3       5      47       6
       3       6      47      48
       3       6      48       7
       3       7      48      49
       3       7      49       8
       3       8      49      50
       3       8      50       9
       3       9      50      51
       3       9      51      10
       3      10      51      52
       3      10      52      11
       3      11      52      53
       3      11      53      12
       3      12      53      54
       3      12      54      13
       3      13      54      55
       3      13      55      14
       3      14      55      56
       3      14      56      15
       3      15      56      57
       3      15      57      16
       3      16      57      58
       3      16      58      17
       3      17      58      59
       3      17      59      18
       3      18      59      60
       3      18      60      19
       3      19      60      61
       3      19      61      20
       3      20      61      62
       3      20      62      21
       3      21      62      63
       3      21      63      22
       3      22      63      64
       3      22      64      23
       3      23      64      65
       3      23      65      24
       3      24      65      66
       3      24      66      25
       3      25      66      67
       3      25      67      26
       3      26      67      68
       3      26      68      27
       3      27      68      69
       3      27      69      28
       3      28      69      70
       3      28      70      29
       3      29      70      71
       3      29      71      30
       3      30      71      72
       3      30      72      31
       3      31      72      73
       3      31      73      32
       3      32      73      74
       3      32      74      33
       3      33      74      75
       3      33      75      34
       3      34      75      76
       3      34      76      35
       3      35      76      77
       3      35      77      36
       3      36      77      78
       3      36      78      37
       3      37      78      79
       3      37      79      38
       3      38      79      80
       3      38      80      39
       3      39      80      81
       3      39      81      40
       3      41      82      83
       3      41      83      42
       3      42      83      84
       3      42      84      43
       3      43      84      85
       3      43      85      44
       3      44      85      86
       3      44      86      45
       3      45      86      87
       3      45      87      46
       3      46      87      88
       3      46      88      47
       3      47      88      89
       3      47      89      48
       3      48      89      90
       3      48      90      49
       3      49      90      91
       3      49      91      50
       3      50      91      92
       3      50      92      51
       3      51      92      93
       3      51      93      52
       3      52      93      94
       3      52      94      53
       3      53      94      95
       3      53      95      54
       3      54      95      96
       3      54      96      55
       3      55      96      97
       3      55      97      56
       3      56      97      98
       3      56      98      57
       3      57      98      99
       3      57      99      58
       3      58      99     100
       3      58     100      59
       3      59     100     101
       3      59     101      60
       3      60     101     102
       3      60     102      61
       3      61     102     103
       3      61     103      62
       3      62     103     104
       3      62     104      63
       3      63     104     105
       3      63     105      64
       3      64     105     106
       3      64     106      65
       3      65     106     107
       3      65     107      66
       3      66     107     108
       3      66     108      67
       3      67     108     109
       3      67     109      68
       3      68     109     110
       3      68     110      69
       3      69     110     111
       3      69     111      70
       3      70     111     112
       3      70     112      71
       3      71     112     113
       3      71     113      72
       3      72     113     114
       3      72     114      73
       3      73     114     115
       3      73     115      74
       3      74     115     116
       3      74     116      75
       3      75     116     117
       3      75     117      76
       3      76     117     118
       3      76     118      77
       3      77     118     119
       3      77     119      78
       3      78     119     120
       3      78     120      79
       3      79     120     121
       3      79     121      80
       3      80     121     122
       3      80     122      81
       3      82     123     124
       3      82     124      83
       3      83     124     125
       3      83     125      84
       3      84     125     126
       3      84     126      85
       3      85     126     127
       3      85     127      86
       3      86     127     128
       3      86     128      87
       3      87     128     129
       3      87     129      88
       3      88     129     130
       3      88     130      89
       3      89     130     131
       3      89     131      90
       3      90     131     132
       3      90     132      91
       3      91     132     133
       3      91     133      92
       3      92     133     134
       3      92     134      93
       3      93     134     135
       3      93     135      94
       3      94     135     136
       3      94     136      95
       3      95     136     137
       3      95     137      96
       3      96     137     138
       3      96     138      97
       3      97     138     139
       3      97     139      98
       3      98     139     140
       3      98     140      99
       3      99     140     141
       3      99     141     100
       3     100     141     142
       3     100     142     101
       3     101     142     143
       3     101     143     102
       3     102     143     144
       3     102     144     103
       3     103     144     145
       3     103     145     104
       3     104     145     146
       3     104     146     105
       3     105     146     147
       3     105     147     106
       3     106     147     148
       3     106     148     107
       3     107     148     149
       3     107     149     108
       3     108     149     150
       3     108     150     109
       3     109     150     151
       3     109     151     110
       3     110     151     152
       3     110     152     111
       3     111     152     153
       3     111     153     112
       3     112     153     154
       3     112     154     113
       3     113     154     155
       3     113     155     114
       3     114     155     156
       3     114     156     115
       3     115     156     157
       3     115     157     116
       3     116     157     158
       3     116     158     117
       3     117     158     159
       3     117     159     118
       3     118     159     160
       3     118     160     119
       3     119     160     161
       3     119     161     120
       3     120     161     162
       3     120     162     121
       3     121     162     163
       3     121     163     122
       3     123     164     165
       3     123     165     124
       3     124     165     166
       3     124     166     125
       3     125     166     167
       3     125     167     126
       3     126     167     168
       3     126     168     127
       3     127     168     169
       3     127     169     128
       3     128     169     170
       3     128     170     129
       3     129     170     171
       3     129     171     130
       3     130     171     172
       3     130     172     131
       3     131     172     173
       3     131     173     132
       3     132     173     174
       3     132     174     133
       3     133     174     175
       3     133     175     134
       3     134     175     176
       3     134     176     135
       3     135     176     177
       3     135     177     136
       3     136     177     178
       3     136     178     137
       3     137     178     179
       3     137     179     138
       3     138     179     180
       3     138     180     139
       3     139     180     181
       3     139     181     140
       3     140     181     182
       3     140     182     141
       3     141     182     183
       3     141     183     142
       3     142     183     184
       3     142     184     143
       3     143     184     185
       3     143     185     144
       3     144     185     186
       3     144     186     145
       3     145     186     187
       3     145     187     146
       3     146     187     188
       3     146     188     147
       3     147     188     189
       3     147     189     148
       3     148     189     190
       3     148     190     149
       3     149     190     191
       3     149     191     150
       3     150     191     192
       3     150     192     151
       3     151     192     193
       3     151     193     152
       3     152     193     194
       3     152     194     153
       3     153     194     195
       3     153     195     154
       3     154     195     196
       3     154     196     155
       3     155     196     197
       3     155     197     156
       3     156     197     198
       3     156     198     157
       3     157     198     199
       3     157     199     158
       3     158     199     200
       3     158     200     159
       3     159     200     201
       3     159     201     160
       3     160     201     202
       3     160     202     161
       3     161     202     203
       3     161     203     162
       3     162     203     204
       3     162     204     163
CELL_TYPES      320
 5
 5
 5
 5
 5
 5
 5
 5
 5
 5
 5
 5
 5
 5
 5
 5
 5
 5
 5
 5
 5
 5
 5
 5
 5
 5
 5
 5
 5
 5
 5
 5
 5
 5
 5
 5
 5
 5
 5
 5
 5
 5
 5
 5
 5
 5
 5
 5
 5
 5
 5
 5
 5
 5
 5
 5
 5
 5
 5
 5
 5
 5
 5
 5
 5
 5
 5
 5
 5
 5
 5
 5
 5
 5
 5
 5
 5
 5
 5
 5
 5
 5
 5
 5
 5
 5
 5
 5
 5
 5
 5
 5
 5
 5
 5
 5
 5
 5
 5
 5
 5
 5
 5
 5
 5
 5
 5
 5
 5
 5
 5
 5
 5
 5
 5
 5
 5
 5
 5
 5
 5
 5
 5
 5
 5
 5
 5
 5
 5
 5
 5
 5
 5
 5
 5
 5
 5
 5
 5
 5
 5
 5
 5
 5
 5
 5
 5
 5
 5
 5
 5
 5
 5
 5
 5
 5
 5
 5
 5
 5
 5
 5
 5
 5
 5
 5
 5
 5
 5
 5
 5
 5
 5
 5
 5
 5
 5
 5
 5
 5
 5
 5
 5
 5
 5
 5
 5
 5
 5
 5
 5
 5
 5
 5
 5
 5
 5
 5
 5
 5
 5
 5
 5
 5
 5
 5
 5
 5
 5
 5
 5
 5
 5
 5
 5
 5
 5
 5
 5
 5
 5
 5
 5
 5
 5
 5
 5
 5
 5
 5
 5
 5
 5
 5
 5
 5
 5
 5
 5
 5
 5
 5
 5
 5
 5
 5
 5
 5
 5
 5
 5
 5
 5
 5
 5
 5
 5
 5
 5
 5
 5
 5
 5
 5
 5
 5
 5
 5
 5
 5
 5
 5
 5
 5
 5
 5
 5
 5
 5
 5
 5
 5
 5
 5
 5
 5
 5
 5
 5
 5
 5
 5
 5
 5
 5
 5
 5
 5
 5
 5
 5
 5
 5
 5
 5
 5
 5
 5
 5
 5
 5
 5
 5
 5
 5
 5
 5
 5
 5
 5
POINT_DATA      205
VECTORS Deslocamentos float
  0.19759139E+00 -0.74891429E-02  0.00000000E+00
  0.19741299E+00 -0.56591533E-01  0.00000000E+00
  0.19662892E+00 -0.10596610E+00  0.00000000E+00
  0.19510773E+00 -0.15485107E+00  0.00000000E+00
  0.19288511E+00 -0.20273518E+00  0.00000000E+00
  0.19002824E+00 -0.24924962E+00  0.00000000E+00
  0.18659740E+00 -0.29409208E+00  0.00000000E+00
  0.18264220E+00 -0.33699376E+00  0.00000000E+00
  0.17820521E+00 -0.37770772E+00  0.00000000E+00
  0.17332551E+00 -0.41600559E+00  0.00000000E+00
  0.16804062E+00 -0.45167689E+00  0.00000000E+00
  0.16238750E+00 -0.48452916E+00  0.00000000E+00
  0.15640292E+00 -0.51438813E+00  0.00000000E+00
  0.15012360E+00 -0.54109775E+00  0.00000000E+00
  0.14358624E+00 -0.56452034E+00  0.00000000E+00
  0.13682756E+00 -0.58453656E+00  0.00000000E+00
  0.12988429E+00 -0.60104541E+00  0.00000000E+00
  0.12279314E+00 -0.61396426E+00  0.00000000E+00
  0.11559084E+00 -0.62322885E+00  0.00000000E+00
  0.10831411E+00 -0.62879327E+00  0.00000000E+00
  0.10099968E+00 -0.63062999E+00  0.00000000E+00
  0.93684256E-01 -0.62872982E+00  0.00000000E+00
  0.86404575E-01 -0.62310195E+00  0.00000000E+00
  0.79197357E-01 -0.61377390E+00  0.00000000E+00
  0.72099324E-01 -0.60079160E+00  0.00000000E+00
  0.65147200E-01 -0.58421931E+00  0.00000000E+00
  0.58377705E-01 -0.56413965E+00  0.00000000E+00
  0.51827556E-01 -0.54065362E+00  0.00000000E+00
  0.45533458E-01 -0.51388057E+00  0.00000000E+00
  0.39532094E-01 -0.48395817E+00  0.00000000E+00
  0.33860110E-01 -0.45104241E+00  0.00000000E+00
  0.28554112E-01 -0.41530734E+00  0.00000000E+00
  0.23650749E-01 -0.37694486E+00  0.00000000E+00
  0.19187110E-01 -0.33616405E+00  0.00000000E+00
  0.15201991E-01 -0.29319069E+00  0.00000000E+00
  0.11739231E-01 -0.24826822E+00  0.00000000E+00
  0.88548869E-02 -0.20166559E+00  0.00000000E+00
  0.66275665E-02 -0.15370383E+00  0.00000000E+00
  0.51530275E-02 -0.10480666E+00  0.00000000E+00
  0.44738590E-02 -0.55537375E-01  0.00000000E+00
  0.43880339E-02 -0.64871584E-02  0.00000000E+00
  0.14894696E+00 -0.72220249E-02  0.00000000E+00
  0.14884859E+00 -0.56475570E-01  0.00000000E+00
  0.14838565E+00 -0.10605601E+00  0.00000000E+00
  0.14758211E+00 -0.15512029E+00  0.00000000E+00
  0.14646463E+00 -0.20315855E+00  0.00000000E+00
  0.14505363E+00 -0.24981007E+00  0.00000000E+00
  0.14336732E+00 -0.29477756E+00  0.00000000E+00
  0.14142360E+00 -0.33779459E+00  0.00000000E+00
  0.13924049E+00 -0.37861521E+00  0.00000000E+00
  0.13683618E+00 -0.41701135E+00  0.00000000E+00
  0.13422896E+00 -0.45277266E+00  0.00000000E+00
  0.13143715E+00 -0.48570669E+00  0.00000000E+00
  0.12847911E+00 -0.51563915E+00  0.00000000E+00
  0.12537319E+00 -0.54241403E+00  0.00000000E+00
  0.12213776E+00 -0.56589360E+00  0.00000000E+00
  0.11879117E+00 -0.58595854E+00  0.00000000E+00
  0.11535179E+00 -0.60250785E+00  0.00000000E+00
  0.11183799E+00 -0.61545890E+00  0.00000000E+00
  0.10826811E+00 -0.62474743E+00  0.00000000E+00
  0.10466053E+00 -0.63032753E+00  0.00000000E+00
  0.10103360E+00 -0.63217165E+00  0.00000000E+00
  0.97405687E-01 -0.63027063E+00  0.00000000E+00
  0.93795153E-01 -0.62463364E+00  0.00000000E+00
  0.90220359E-01 -0.61528822E+00  0.00000000E+00
  0.86699666E-01 -0.60228027E+00  0.00000000E+00
  0.83251436E-01 -0.58567407E+00  0.00000000E+00
  0.79894032E-01 -0.56555225E+00  0.00000000E+00
  0.76645821E-01 -0.54201578E+00  0.00000000E+00
  0.73525172E-01 -0.51518402E+00  0.00000000E+00
  0.70550463E-01 -0.48519466E+00  0.00000000E+00
  0.67740081E-01 -0.45220369E+00  0.00000000E+00
  0.65112406E-01 -0.41638528E+00  0.00000000E+00
  0.62685745E-01 -0.37793157E+00  0.00000000E+00
  0.60478147E-01 -0.33705219E+00  0.00000000E+00
  0.58506989E-01 -0.29397378E+00  0.00000000E+00
  0.56788412E-01 -0.24894005E+00  0.00000000E+00
  0.55337696E-01 -0.20221579E+00  0.00000000E+00
  0.54175190E-01 -0.15410410E+00  0.00000000E+00
  0.53347933E-01 -0.10499849E+00  0.00000000E+00
  0.52939580E-01 -0.55462208E-01  0.00000000E+00
  0.52986819E-01 -0.62465714E-02  0.00000000E+00
  0.10081330E+00 -0.62322678E-02  0.00000000E+00
  0.10089568E+00 -0.56093573E-01  0.00000000E+00
  0.10081924E+00 -0.10598606E+00  0.00000000E+00
  0.10074227E+00 -0.15516357E+00  0.00000000E+00
  0.10070724E+00 -0.20324996E+00  0.00000000E+00
  0.10070593E+00 -0.24993636E+00  0.00000000E+00
  0.10072321E+00 -0.29493872E+00  0.00000000E+00
  0.10074872E+00 -0.33799173E+00  0.00000000E+00
  0.10077703E+00 -0.37884802E+00  0.00000000E+00
  0.10080571E+00 -0.41727832E+00  0.00000000E+00
  0.10083384E+00 -0.45307155E+00  0.00000000E+00
  0.10086107E+00 -0.48603494E+00  0.00000000E+00
  0.10088732E+00 -0.51599409E+00  0.00000000E+00
  0.10091257E+00 -0.54279289E+00  0.00000000E+00
  0.10093683E+00 -0.56629366E+00  0.00000000E+00
  0.10096010E+00 -0.58637702E+00  0.00000000E+00
  0.10098239E+00 -0.60294201E+00  0.00000000E+00
  0.10100369E+00 -0.61590598E+00  0.00000000E+00
  0.10102400E+00 -0.62520467E+00  0.00000000E+00
  0.10104334E+00 -0.63079218E+00  0.00000000E+00
  0.10106169E+00 -0.63264096E+00  0.00000000E+00
  0.10107905E+00 -0.63074184E+00  0.00000000E+00
  0.10109543E+00 -0.62510400E+00  0.00000000E+00
  0.10111083E+00 -0.61575497E+00  0.00000000E+00
  0.10112525E+00 -0.60274066E+00  0.00000000E+00
  0.10113868E+00 -0.58612534E+00  0.00000000E+00
  0.10115113E+00 -0.56599164E+00  0.00000000E+00
  0.10116261E+00 -0.54244053E+00  0.00000000E+00
  0.10117313E+00 -0.51559138E+00  0.00000000E+00
  0.10118269E+00 -0.48558188E+00  0.00000000E+00
  0.10119130E+00 -0.45256810E+00  0.00000000E+00
  0.10119888E+00 -0.41672446E+00  0.00000000E+00
  0.10120506E+00 -0.37824369E+00  0.00000000E+00
  0.10120867E+00 -0.33733686E+00  0.00000000E+00
  0.10120652E+00 -0.29423314E+00  0.00000000E+00
  0.10119116E+00 -0.24917933E+00  0.00000000E+00
  0.10114774E+00 -0.20243830E+00  0.00000000E+00
  0.10105407E+00 -0.15428595E+00  0.00000000E+00
  0.10090446E+00 -0.10501891E+00  0.00000000E+00
  0.10084001E+00 -0.55089624E-01  0.00000000E+00
  0.10118627E+00 -0.53479283E-02  0.00000000E+00
  0.52029473E-01 -0.40348022E-02  0.00000000E+00
  0.52459415E-01 -0.55463754E-01  0.00000000E+00
  0.52931171E-01 -0.10575769E+00  0.00000000E+00
  0.53725164E-01 -0.15497119E+00  0.00000000E+00
  0.54863779E-01 -0.20300616E+00  0.00000000E+00
  0.56319137E-01 -0.24963340E+00  0.00000000E+00
  0.58061039E-01 -0.29458579E+00  0.00000000E+00
  0.60064125E-01 -0.33759806E+00  0.00000000E+00
  0.62306767E-01 -0.37842022E+00  0.00000000E+00
  0.64769310E-01 -0.41682098E+00  0.00000000E+00
  0.67432953E-01 -0.45258820E+00  0.00000000E+00
  0.70279219E-01 -0.48552862E+00  0.00000000E+00
  0.73289731E-01 -0.51546761E+00  0.00000000E+00
  0.76446134E-01 -0.54224905E+00  0.00000000E+00
  0.79730076E-01 -0.56573520E+00  0.00000000E+00
  0.83123199E-01 -0.58580670E+00  0.00000000E+00
  0.86607145E-01 -0.60236257E+00  0.00000000E+00
  0.90163552E-01 -0.61532018E+00  0.00000000E+00
  0.93774061E-01 -0.62461526E+00  0.00000000E+00
  0.97420309E-01 -0.63020192E+00  0.00000000E+00
  0.10108394E+00 -0.63205261E+00  0.00000000E+00
  0.10474658E+00 -0.63015814E+00  0.00000000E+00
  0.10838988E+00 -0.62452771E+00  0.00000000E+00
  0.11199547E+00 -0.61518884E+00  0.00000000E+00
  0.11554499E+00 -0.60218745E+00  0.00000000E+00
  0.11902008E+00 -0.58558781E+00  0.00000000E+00
  0.12240238E+00 -0.56547253E+00  0.00000000E+00
  0.12567353E+00 -0.54194260E+00  0.00000000E+00
  0.12881516E+00 -0.51511737E+00  0.00000000E+00
  0.13180891E+00 -0.48513458E+00  0.00000000E+00
  0.13463639E+00 -0.45215034E+00  0.00000000E+00
  0.13727920E+00 -0.41633929E+00  0.00000000E+00
  0.13971883E+00 -0.37789469E+00  0.00000000E+00
  0.14193652E+00 -0.33702879E+00  0.00000000E+00
  0.14391282E+00 -0.29397311E+00  0.00000000E+00
  0.14562665E+00 -0.24897797E+00  0.00000000E+00
  0.14705286E+00 -0.20230810E+00  0.00000000E+00
  0.14815702E+00 -0.15422477E+00  0.00000000E+00
  0.14888678E+00 -0.10492917E+00  0.00000000E+00
  0.14919683E+00 -0.54440759E-01  0.00000000E+00
  0.14984725E+00 -0.33368905E-02  0.00000000E+00
  0.00000000E+00  0.00000000E+00  0.00000000E+00
  0.21556740E-02 -0.54730139E-01  0.00000000E+00
  0.38215700E-02 -0.10533889E+00  0.00000000E+00
  0.58167965E-02 -0.15447495E+00  0.00000000E+00
  0.82885733E-02 -0.20237338E+00  0.00000000E+00
  0.11283143E-01 -0.24886548E+00  0.00000000E+00
  0.14802745E-01 -0.29369448E+00  0.00000000E+00
  0.18827101E-01 -0.33659507E+00  0.00000000E+00
  0.23325591E-01 -0.37731579E+00  0.00000000E+00
  0.28263419E-01 -0.41562428E+00  0.00000000E+00
  0.33604324E-01 -0.45130786E+00  0.00000000E+00
  0.39311612E-01 -0.48417303E+00  0.00000000E+00
  0.45348512E-01 -0.51404507E+00  0.00000000E+00
  0.51678256E-01 -0.54076782E+00  0.00000000E+00
  0.58264097E-01 -0.56420354E+00  0.00000000E+00
  0.65069301E-01 -0.58423288E+00  0.00000000E+00
  0.72057138E-01 -0.60075485E+00  0.00000000E+00
  0.79190885E-01 -0.61368682E+00  0.00000000E+00
  0.86433818E-01 -0.62296452E+00  0.00000000E+00
  0.93749214E-01 -0.62854206E+00  0.00000000E+00
  0.10110035E+00 -0.63039190E+00  0.00000000E+00
  0.10845050E+00 -0.62850484E+00  0.00000000E+00
  0.11576295E+00 -0.62289008E+00  0.00000000E+00
  0.12300096E+00 -0.61357515E+00  0.00000000E+00
  0.13012782E+00 -0.60060596E+00  0.00000000E+00
  0.13710680E+00 -0.58404678E+00  0.00000000E+00
  0.14390119E+00 -0.56398022E+00  0.00000000E+00
  0.15047423E+00 -0.54050728E+00  0.00000000E+00
  0.15678922E+00 -0.51374731E+00  0.00000000E+00
  0.16280939E+00 -0.48383804E+00  0.00000000E+00
  0.16849802E+00 -0.45093561E+00  0.00000000E+00
  0.17381844E+00 -0.41521465E+00  0.00000000E+00
  0.17873424E+00 -0.37686842E+00  0.00000000E+00
  0.18320993E+00 -0.33610904E+00  0.00000000E+00
  0.18721248E+00 -0.29316759E+00  0.00000000E+00
  0.19071493E+00 -0.24829303E+00  0.00000000E+00
  0.19370342E+00 -0.20174648E+00  0.00000000E+00
  0.19618763E+00 -0.15378013E+00  0.00000000E+00
  0.19820493E+00 -0.10456850E+00  0.00000000E+00
  0.19975383E+00 -0.53961482E-01  0.00000000E+00
  0.20017074E+00  0.00000000E+00  0.00000000E+00
SCALARS Sigma_xx float 1
LOOKUP_TABLE default
 -0.18078530E+01
 -0.45169856E+01
 -0.91510456E+01
 -0.14069977E+02
 -0.18671813E+02
 -0.22868010E+02
 -0.26702234E+02
 -0.30223244E+02
 -0.33460850E+02
 -0.36429612E+02
 -0.39135668E+02
 -0.41581279E+02
 -0.43767154E+02
 -0.45693461E+02
 -0.47360213E+02
 -0.48767392E+02
 -0.49914981E+02
 -0.50802972E+02
 -0.51431361E+02
 -0.51800146E+02
 -0.51909326E+02
 -0.51758902E+02
 -0.51348874E+02
 -0.50679241E+02
 -0.49750006E+02
 -0.48561175E+02
 -0.47112762E+02
 -0.45404806E+02
 -0.43437382E+02
 -0.41210616E+02
 -0.38724629E+02
 -0.35979214E+02
 -0.32972711E+02
 -0.29698789E+02
 -0.26138638E+02
 -0.22245115E+02
 -0.17919898E+02
 -0.13019703E+02
 -0.75985050E+01
 -0.25693253E+01
 -0.14584724E+01
 -0.18647174E+01
 -0.27344003E+01
 -0.52366679E+01
 -0.79328525E+01
 -0.10543657E+02
 -0.12995085E+02
 -0.15277110E+02
 -0.17394291E+02
 -0.19351708E+02
 -0.21152454E+02
 -0.22798028E+02
 -0.24289059E+02
 -0.25625773E+02
 -0.26808240E+02
 -0.27836477E+02
 -0.28710481E+02
 -0.29430253E+02
 -0.29995788E+02
 -0.30407087E+02
 -0.30664149E+02
 -0.30766974E+02
 -0.30715562E+02
 -0.30509912E+02
 -0.30150025E+02
 -0.29635899E+02
 -0.28967531E+02
 -0.28144912E+02
 -0.27168027E+02
 -0.26036841E+02
 -0.24751306E+02
 -0.23311393E+02
 -0.21717234E+02
 -0.19969528E+02
 -0.18070453E+02
 -0.16025006E+02
 -0.13840650E+02
 -0.11514978E+02
 -0.89784470E+01
 -0.59608488E+01
 -0.23628321E+01
 -0.10943577E+01
 -0.16935868E+01
 -0.90349477E+00
 -0.50319857E+00
 -0.11154538E+00
  0.14749231E+00
  0.27443453E+00
  0.31858194E+00
  0.32098433E+00
  0.30519531E+00
  0.28242511E+00
  0.25733073E+00
  0.23161229E+00
  0.20579875E+00
  0.18001404E+00
  0.15426621E+00
  0.12854142E+00
  0.10282795E+00
  0.77119290E-01
  0.51412394E-01
  0.25706035E-01
 -0.20733863E-06
 -0.25706445E-01
 -0.51412527E-01
 -0.77117811E-01
 -0.10282039E+00
 -0.12851535E+00
 -0.15419131E+00
 -0.17982578E+00
 -0.20538360E+00
 -0.23083904E+00
 -0.25628629E+00
 -0.28231564E+00
 -0.31107675E+00
 -0.34889913E+00
 -0.41191835E+00
 -0.53603184E+00
 -0.78758737E+00
 -0.12416510E+01
 -0.17338661E+01
 -0.62212597E+00
 -0.75365321E+00
  0.28485938E+01
  0.29980487E+01
  0.57294867E+01
  0.85976889E+01
  0.11282226E+02
  0.13738074E+02
  0.15989661E+02
  0.18061913E+02
  0.19969314E+02
  0.21718619E+02
  0.23312524E+02
  0.24751950E+02
  0.26037148E+02
  0.27168155E+02
  0.28144960E+02
  0.28967546E+02
  0.29635903E+02
  0.30150025E+02
  0.30509912E+02
  0.30715562E+02
  0.30766974E+02
  0.30664149E+02
  0.30407087E+02
  0.29995787E+02
  0.29430249E+02
  0.28710470E+02
  0.27836446E+02
  0.26808171E+02
  0.25625633E+02
  0.24288823E+02
  0.22797764E+02
  0.21152576E+02
  0.19353629E+02
  0.17401680E+02
  0.15297469E+02
  0.13038362E+02
  0.10604051E+02
  0.79087812E+01
  0.46869578E+01
  0.87465903E+00
 -0.46751416E+00
  0.87252304E+01
  0.80027758E+01
  0.11266209E+02
  0.14884973E+02
  0.18696681E+02
  0.22519818E+02
  0.26217526E+02
  0.29713051E+02
  0.32970467E+02
  0.35975148E+02
  0.38721910E+02
  0.41209221E+02
  0.43436770E+02
  0.45404570E+02
  0.47112684E+02
  0.48561154E+02
  0.49750003E+02
  0.50679242E+02
  0.51348875E+02
  0.51758903E+02
  0.51909327E+02
  0.51800146E+02
  0.51431361E+02
  0.50802970E+02
  0.49914971E+02
  0.48767358E+02
  0.47360117E+02
  0.45693222E+02
  0.43766637E+02
  0.41580353E+02
  0.39134569E+02
  0.36430248E+02
  0.33470676E+02
  0.30265206E+02
  0.26837159E+02
  0.23237396E+02
  0.19558304E+02
  0.15908910E+02
  0.12142036E+02
  0.57848974E+01
 -0.35775271E+00
SCALARS Sigma_yy float 1
LOOKUP_TABLE default
 -0.21512957E+01
 -0.17527579E+01
 -0.14880473E+01
 -0.15279361E+01
 -0.16613991E+01
 -0.18025510E+01
 -0.19296585E+01
 -0.20413419E+01
 -0.21402069E+01
 -0.22284515E+01
 -0.23073097E+01
 -0.23773542E+01
 -0.24388164E+01
 -0.24917778E+01
 -0.25362624E+01
 -0.25722749E+01
 -0.25998150E+01
 -0.26188819E+01
 -0.26294747E+01
 -0.26315931E+01
 -0.26252371E+01
 -0.26104067E+01
 -0.25871024E+01
 -0.25553256E+01
 -0.25150800E+01
 -0.24663742E+01
 -0.24092244E+01
 -0.23436554E+01
 -0.22696843E+01
 -0.21872453E+01
 -0.20959534E+01
 -0.19945047E+01
 -0.18794446E+01
 -0.17434178E+01
 -0.15751986E+01
 -0.13707239E+01
 -0.11740741E+01
 -0.11272571E+01
 -0.14157830E+01
 -0.18653741E+01
 -0.24584724E+01
 -0.51482555E+01
 -0.26864933E+01
 -0.16168568E+01
 -0.12509945E+01
 -0.11679928E+01
 -0.11573138E+01
 -0.11519087E+01
 -0.11383504E+01
 -0.11177535E+01
 -0.10931742E+01
 -0.10667373E+01
 -0.10395472E+01
 -0.10120911E+01
 -0.98455655E+00
 -0.95700615E+00
 -0.92945649E+00
 -0.90190994E+00
 -0.87436558E+00
 -0.84682239E+00
 -0.81927971E+00
 -0.79173726E+00
 -0.76419515E+00
 -0.73665392E+00
 -0.70911510E+00
 -0.68158221E+00
 -0.65406224E+00
 -0.62656593E+00
 -0.59910078E+00
 -0.57163725E+00
 -0.54399663E+00
 -0.51554575E+00
 -0.48448650E+00
 -0.44648385E+00
 -0.39279231E+00
 -0.31027030E+00
 -0.19325335E+00
 -0.95767787E-01
 -0.26472469E+00
 -0.11551847E+01
 -0.29520946E+01
 -0.37286182E+01
 -0.11195792E+02
 -0.48095206E+01
 -0.17903943E+01
 -0.89017788E+00
 -0.74598465E+00
 -0.77847758E+00
 -0.81572065E+00
 -0.82727447E+00
 -0.81866366E+00
 -0.79903570E+00
 -0.77438340E+00
 -0.74773454E+00
 -0.72039678E+00
 -0.69286379E+00
 -0.66529540E+00
 -0.63773194E+00
 -0.61017794E+00
 -0.58263021E+00
 -0.55508570E+00
 -0.52754257E+00
 -0.50000000E+00
 -0.47245784E+00
 -0.44491650E+00
 -0.41737726E+00
 -0.38984304E+00
 -0.36231928E+00
 -0.33481324E+00
 -0.30732493E+00
 -0.27980969E+00
 -0.25206073E+00
 -0.22339401E+00
 -0.19191254E+00
 -0.15303971E+00
 -0.97267628E-01
 -0.88288818E-02
  0.12618895E+00
  0.27153443E+00
  0.15124374E+00
 -0.13680667E+01
 -0.58335556E+01
 -0.94164394E+01
 -0.18649895E+02
 -0.65809642E+01
 -0.16697129E+01
 -0.55445278E+00
 -0.41420682E+00
 -0.46620861E+00
 -0.51532600E+00
 -0.53239996E+00
 -0.52598336E+00
 -0.50710345E+00
 -0.48265504E+00
 -0.45603679E+00
 -0.42868832E+00
 -0.40114203E+00
 -0.37356521E+00
 -0.34599753E+00
 -0.31844166E+00
 -0.29089324E+00
 -0.26334849E+00
 -0.23580531E+00
 -0.20826274E+00
 -0.18072042E+00
 -0.15317844E+00
 -0.12563727E+00
 -0.98097957E-01
 -0.70562418E-01
 -0.43033001E-01
 -0.15508796E-01
  0.12028863E-01
  0.39660781E-01
  0.67646373E-01
  0.96689866E-01
  0.12845494E+00
  0.16630353E+00
  0.21551598E+00
  0.27954762E+00
  0.33970540E+00
  0.26913877E+00
 -0.61169780E+00
 -0.76936781E+01
 -0.16931275E+02
 -0.31274770E+02
 -0.13004859E+02
 -0.10195047E+01
  0.51394353E+00
  0.67597169E+00
  0.68378071E+00
  0.72371956E+00
  0.80148348E+00
  0.89791867E+00
  0.99858922E+00
  0.10958944E+01
  0.11864925E+01
  0.12691120E+01
  0.13433417E+01
  0.14090793E+01
  0.14663153E+01
  0.15150591E+01
  0.15553193E+01
  0.15871011E+01
  0.16104068E+01
  0.16252374E+01
  0.16315933E+01
  0.16294745E+01
  0.16188807E+01
  0.15998115E+01
  0.15722657E+01
  0.15362416E+01
  0.14917380E+01
  0.14387601E+01
  0.13773403E+01
  0.13075973E+01
  0.12298853E+01
  0.11451255E+01
  0.10554299E+01
  0.96496690E+00
  0.88012805E+00
  0.80454917E+00
  0.71015930E+00
  0.37787261E+00
 -0.19583605E+01
 -0.16135228E+02
SCALARS Sigma_xy float 1
LOOKUP_TABLE default
 -0.18530243E+01
 -0.28919050E+01
 -0.35664087E+01
 -0.35921896E+01
 -0.34833052E+01
 -0.33870227E+01
 -0.33195166E+01
 -0.32677515E+01
 -0.32191456E+01
 -0.31663249E+01
 -0.31057752E+01
 -0.30360450E+01
 -0.29566105E+01
 -0.28673124E+01
 -0.27681155E+01
 -0.26590189E+01
 -0.25400276E+01
 -0.24111457E+01
 -0.22723752E+01
 -0.21237172E+01
 -0.19651719E+01
 -0.17967395E+01
 -0.16184205E+01
 -0.14302161E+01
 -0.12321300E+01
 -0.10241715E+01
 -0.80636218E+00
 -0.57874370E+00
 -0.34137983E+00
 -0.94315127E-01
  0.16261867E+00
  0.43042173E+00
  0.71253164E+00
  0.10182445E+01
  0.13681080E+01
  0.17965034E+01
  0.23292172E+01
  0.28801221E+01
  0.30662116E+01
  0.21591338E+01
  0.14584724E+01
 -0.39171951E+01
 -0.39939782E+01
 -0.47481112E+01
 -0.45472273E+01
 -0.41574693E+01
 -0.37937994E+01
 -0.34820350E+01
 -0.32053319E+01
 -0.29466435E+01
 -0.26958420E+01
 -0.24480606E+01
 -0.22012760E+01
 -0.19547528E+01
 -0.17082651E+01
 -0.14617619E+01
 -0.12152413E+01
 -0.96871010E+00
 -0.72217377E+00
 -0.47563528E+00
 -0.22909600E+00
  0.17443516E-01
  0.26398302E+00
  0.51052221E+00
  0.75706040E+00
  0.10035958E+01
  0.12501245E+01
  0.14966390E+01
  0.17431286E+01
  0.19895898E+01
  0.22360709E+01
  0.24828177E+01
  0.27306727E+01
  0.29820347E+01
  0.32428696E+01
  0.35261737E+01
  0.38556851E+01
  0.42609015E+01
  0.47228878E+01
  0.49319340E+01
  0.39782298E+01
  0.23881174E+01
 -0.62437912E+01
 -0.55219139E+01
 -0.59526758E+01
 -0.56556073E+01
 -0.52676271E+01
 -0.48961735E+01
 -0.45476603E+01
 -0.42131757E+01
 -0.38854371E+01
 -0.35604775E+01
 -0.32365071E+01
 -0.29128273E+01
 -0.25892045E+01
 -0.22655767E+01
 -0.19419359E+01
 -0.16182859E+01
 -0.12946311E+01
 -0.97097413E+00
 -0.64731631E+00
 -0.32365822E+00
 -0.65219838E-07
  0.32365812E+00
  0.64731644E+00
  0.97097519E+00
  0.12946353E+01
  0.16182991E+01
  0.19419721E+01
  0.22656653E+01
  0.25893979E+01
  0.29131964E+01
  0.32370754E+01
  0.35609761E+01
  0.38846320E+01
  0.42074401E+01
  0.45289645E+01
  0.48526840E+01
  0.52006346E+01
  0.56484864E+01
  0.62856152E+01
  0.60577449E+01
  0.42410985E+01
 -0.69687702E+01
 -0.45997444E+01
 -0.41480128E+01
 -0.39085098E+01
 -0.37759481E+01
 -0.36224050E+01
 -0.34286702E+01
 -0.32070801E+01
 -0.29708398E+01
 -0.27280347E+01
 -0.24826457E+01
 -0.22363701E+01
 -0.19898439E+01
 -0.17432720E+01
 -0.14967060E+01
 -0.12501519E+01
 -0.10036056E+01
 -0.75706337E+00
 -0.51052290E+00
 -0.26398312E+00
 -0.17443565E-01
  0.22909600E+00
  0.47563589E+00
  0.72217691E+00
  0.96872114E+00
  0.12152734E+01
  0.14618432E+01
  0.17084451E+01
  0.19550876E+01
  0.22017224E+01
  0.24480723E+01
  0.26931511E+01
  0.29340973E+01
  0.31637274E+01
  0.33663971E+01
  0.35139828E+01
  0.35734053E+01
  0.35707872E+01
  0.38667956E+01
  0.58917925E+01
  0.49626191E+01
 -0.87252304E+01
 -0.44486506E+01
 -0.16324034E+01
 -0.14233196E+01
 -0.14718412E+01
 -0.14012408E+01
 -0.12162733E+01
 -0.97056902E+00
 -0.70214863E+00
 -0.43063686E+00
 -0.16456473E+00
  0.92851696E-01
  0.34058269E+00
  0.57837725E+00
  0.80621437E+00
  0.10241193E+01
  0.12321145E+01
  0.14302129E+01
  0.16184206E+01
  0.17967400E+01
  0.19651722E+01
  0.21237173E+01
  0.22723757E+01
  0.24111478E+01
  0.25400352E+01
  0.26590410E+01
  0.27681718E+01
  0.28674368E+01
  0.29568392E+01
  0.30363357E+01
  0.31057011E+01
  0.31641493E+01
  0.32093940E+01
  0.32356052E+01
  0.32296538E+01
  0.31661920E+01
  0.30082414E+01
  0.27456591E+01
  0.26355992E+01
  0.49805192E+01
  0.67601605E+01
SCALARS Von_Mises float 1
LOOKUP_TABLE default
  0.37826282E+01
  0.63755376E+01
  0.10511734E+02
  0.14748298E+02
  0.18888509E+02
  0.22790131E+02
  0.26424690E+02
  0.29798493E+02
  0.32919364E+02
  0.35790751E+02
  0.38413066E+02
  0.40785461E+02
  0.42906831E+02
  0.44776197E+02
  0.46392800E+02
  0.47756079E+02
  0.48865630E+02
  0.49721166E+02
  0.50322486E+02
  0.50669458E+02
  0.50762008E+02
  0.50600111E+02
  0.50183792E+02
  0.49513127E+02
  0.48588249E+02
  0.47409360E+02
  0.45976757E+02
  0.44290865E+02
  0.42352309E+02
  0.40162021E+02
  0.37721403E+02
  0.35032513E+02
  0.32098049E+02
  0.28920419E+02
  0.25498063E+02
  0.21815462E+02
  0.17825198E+02
  0.13453331E+02
  0.87857184E+01
  0.43902024E+01
  0.33116521E+01
  0.81495347E+01
  0.74299279E+01
  0.94447687E+01
  0.10798287E+02
  0.12331733E+02
  0.14083712E+02
  0.15921459E+02
  0.17744826E+02
  0.19497581E+02
  0.21149485E+02
  0.22683640E+02
  0.24089962E+02
  0.25362021E+02
  0.26495497E+02
  0.27487376E+02
  0.28335506E+02
  0.29038336E+02
  0.29594749E+02
  0.30003956E+02
  0.30265429E+02
  0.30378860E+02
  0.30344128E+02
  0.30161301E+02
  0.29830629E+02
  0.29352570E+02
  0.28727817E+02
  0.27957357E+02
  0.27042554E+02
  0.25985296E+02
  0.24788273E+02
  0.23455531E+02
  0.21993658E+02
  0.20414282E+02
  0.18738897E+02
  0.17006667E+02
  0.15281529E+02
  0.13636971E+02
  0.12050841E+02
  0.10146537E+02
  0.74028015E+01
  0.53036859E+01
  0.15040204E+02
  0.10539308E+02
  0.10433640E+02
  0.98317468E+01
  0.91614388E+01
  0.85330257E+01
  0.79416881E+01
  0.73692268E+01
  0.68046360E+01
  0.62429872E+01
  0.56824376E+01
  0.51224628E+01
  0.45630604E+01
  0.40044605E+01
  0.34470849E+01
  0.28916687E+01
  0.23396246E+01
  0.17940763E+01
  0.12634702E+01
  0.77896529E+00
  0.49999990E+00
  0.72525565E+00
  0.11978211E+01
  0.17252079E+01
  0.22695170E+01
  0.28209757E+01
  0.33760949E+01
  0.39333495E+01
  0.44919876E+01
  0.50516112E+01
  0.56119789E+01
  0.61728441E+01
  0.67337717E+01
  0.72941697E+01
  0.78549777E+01
  0.84271301E+01
  0.90580176E+01
  0.98726166E+01
  0.11001488E+02
  0.11869163E+02
  0.11666248E+02
  0.23553138E+02
  0.11640463E+02
  0.98386782E+01
  0.11172468E+02
  0.13225231E+02
  0.15320649E+02
  0.17304394E+02
  0.19156941E+02
  0.20881364E+02
  0.22478783E+02
  0.23946800E+02
  0.25281591E+02
  0.26479371E+02
  0.27536972E+02
  0.28451936E+02
  0.29222419E+02
  0.29847062E+02
  0.30324883E+02
  0.30655191E+02
  0.30837531E+02
  0.30871647E+02
  0.30757468E+02
  0.30495095E+02
  0.30084817E+02
  0.29527131E+02
  0.28822779E+02
  0.27972816E+02
  0.26978703E+02
  0.25842447E+02
  0.24566806E+02
  0.23155552E+02
  0.21613764E+02
  0.19947936E+02
  0.18165343E+02
  0.16271449E+02
  0.14264516E+02
  0.12135350E+02
  0.99370146E+01
  0.83704882E+01
  0.13070069E+02
  0.18784403E+02
  0.39439946E+02
  0.19915251E+02
  0.12142777E+02
  0.14840958E+02
  0.18544092E+02
  0.22318189E+02
  0.25948917E+02
  0.29368678E+02
  0.32553528E+02
  0.35494231E+02
  0.38186823E+02
  0.40629288E+02
  0.42820386E+02
  0.44759237E+02
  0.46445182E+02
  0.47877721E+02
  0.49056481E+02
  0.49981184E+02
  0.50651633E+02
  0.51067695E+02
  0.51229292E+02
  0.51136396E+02
  0.50789025E+02
  0.50187244E+02
  0.49331172E+02
  0.48220986E+02
  0.46856937E+02
  0.45239365E+02
  0.43368739E+02
  0.41245734E+02
  0.38871431E+02
  0.36247843E+02
  0.33379184E+02
  0.30274763E+02
  0.26954764E+02
  0.23460044E+02
  0.19864227E+02
  0.16276235E+02
  0.12799329E+02
  0.11092603E+02
  0.19793950E+02
