# vtk DataFile Version 2.0
MEF - Elasticidade Plana 2D
ASCII
DATASET UNSTRUCTURED_GRID
POINTS      205 float
  0.00000000E+00  0.10000000E+02  0.00000000E+00
  0.25000000E+01  0.10000000E+02  0.00000000E+00
  0.50000000E+01  0.10000000E+02  0.00000000E+00
  0.75000000E+01  0.10000000E+02  0.00000000E+00
  0.10000000E+02  0.10000000E+02  0.00000000E+00
  0.12500000E+02  0.10000000E+02  0.00000000E+00
  0.15000000E+02  0.10000000E+02  0.00000000E+00
  0.17500000E+02  0.10000000E+02  0.00000000E+00
  0.20000000E+02  0.10000000E+02  0.00000000E+00
  0.22500000E+02  0.10000000E+02  0.00000000E+00
  0.25000000E+02  0.10000000E+02  0.00000000E+00
  0.27500000E+02  0.10000000E+02  0.00000000E+00
  0.30000000E+02  0.10000000E+02  0.00000000E+00
  0.32500000E+02  0.10000000E+02  0.00000000E+00
  0.35000000E+02  0.10000000E+02  0.00000000E+00
  0.37500000E+02  0.10000000E+02  0.00000000E+00
  0.40000000E+02  0.10000000E+02  0.00000000E+00
  0.42500000E+02  0.10000000E+02  0.00000000E+00
  0.45000000E+02  0.10000000E+02  0.00000000E+00
  0.47500000E+02  0.10000000E+02  0.00000000E+00
  0.50000000E+02  0.10000000E+02  0.00000000E+00
  0.52500000E+02  0.10000000E+02  0.00000000E+00
  0.55000000E+02  0.10000000E+02  0.00000000E+00
  0.57500000E+02  0.10000000E+02  0.00000000E+00
  0.60000000E+02  0.10000000E+02  0.00000000E+00
  0.62500000E+02  0.10000000E+02  0.00000000E+00
  0.65000000E+02  0.10000000E+02  0.00000000E+00
  0.67500000E+02  0.10000000E+02  0.00000000E+00
  0.70000000E+02  0.10000000E+02  0.00000000E+00
  0.72500000E+02  0.10000000E+02  0.00000000E+00
  0.75000000E+02  0.10000000E+02  0.00000000E+00
  0.77500000E+02  0.10000000E+02  0.00000000E+00
  0.80000000E+02  0.10000000E+02  0.00000000E+00
  0.82500000E+02  0.10000000E+02  0.00000000E+00
  0.85000000E+02  0.10000000E+02  0.00000000E+00
  0.87500000E+02  0.10000000E+02  0.00000000E+00
  0.90000000E+02  0.10000000E+02  0.00000000E+00
  0.92500000E+02  0.10000000E+02  0.00000000E+00
  0.95000000E+02  0.10000000E+02  0.00000000E+00
  0.97500000E+02  0.10000000E+02  0.00000000E+00
  0.10000000E+03  0.10000000E+02  0.00000000E+00
  0.00000000E+00  0.75000000E+01  0.00000000E+00
  0.25000000E+01  0.75000000E+01  0.00000000E+00
  0.50000000E+01  0.75000000E+01  0.00000000E+00
  0.75000000E+01  0.75000000E+01  0.00000000E+00
  0.10000000E+02  0.75000000E+01  0.00000000E+00
  0.12500000E+02  0.75000000E+01  0.00000000E+00
  0.15000000E+02  0.75000000E+01  0.00000000E+00
  0.17500000E+02  0.75000000E+01  0.00000000E+00
  0.20000000E+02  0.75000000E+01  0.00000000E+00
  0.22500000E+02  0.75000000E+01  0.00000000E+00
  0.25000000E+02  0.75000000E+01  0.00000000E+00
  0.27500000E+02  0.75000000E+01  0.00000000E+00
  0.30000000E+02  0.75000000E+01  0.00000000E+00
  0.32500000E+02  0.75000000E+01  0.00000000E+00
  0.35000000E+02  0.75000000E+01  0.00000000E+00
  0.37500000E+02  0.75000000E+01  0.00000000E+00
  0.40000000E+02  0.75000000E+01  0.00000000E+00
  0.42500000E+02  0.75000000E+01  0.00000000E+00
  0.45000000E+02  0.75000000E+01  0.00000000E+00
  0.47500000E+02  0.75000000E+01  0.00000000E+00
  0.50000000E+02  0.75000000E+01  0.00000000E+00
  0.52500000E+02  0.75000000E+01  0.00000000E+00
  0.55000000E+02  0.75000000E+01  0.00000000E+00
  0.57500000E+02  0.75000000E+01  0.00000000E+00
  0.60000000E+02  0.75000000E+01  0.00000000E+00
  0.62500000E+02  0.75000000E+01  0.00000000E+00
  0.65000000E+02  0.75000000E+01  0.00000000E+00
  0.67500000E+02  0.75000000E+01  0.00000000E+00
  0.70000000E+02  0.75000000E+01  0.00000000E+00
  0.72500000E+02  0.75000000E+01  0.00000000E+00
  0.75000000E+02  0.75000000E+01  0.00000000E+00
  0.77500000E+02  0.75000000E+01  0.00000000E+00
  0.80000000E+02  0.75000000E+01  0.00000000E+00
  0.82500000E+02  0.75000000E+01  0.00000000E+00
  0.85000000E+02  0.75000000E+01  0.00000000E+00
  0.87500000E+02  0.75000000E+01  0.00000000E+00
  0.90000000E+02  0.75000000E+01  0.00000000E+00
  0.92500000E+02  0.75000000E+01  0.00000000E+00
  0.95000000E+02  0.75000000E+01  0.00000000E+00
  0.97500000E+02  0.75000000E+01  0.00000000E+00
  0.10000000E+03  0.75000000E+01  0.00000000E+00
  0.00000000E+00  0.50000000E+01  0.00000000E+00
  0.25000000E+01  0.50000000E+01  0.00000000E+00
  0.50000000E+01  0.50000000E+01  0.00000000E+00
  0.75000000E+01  0.50000000E+01  0.00000000E+00
  0.10000000E+02  0.50000000E+01  0.00000000E+00
  0.12500000E+02  0.50000000E+01  0.00000000E+00
  0.15000000E+02  0.50000000E+01  0.00000000E+00
  0.17500000E+02  0.50000000E+01  0.00000000E+00
  0.20000000E+02  0.50000000E+01  0.00000000E+00
  0.22500000E+02  0.50000000E+01  0.00000000E+00
  0.25000000E+02  0.50000000E+01  0.00000000E+00
  0.27500000E+02  0.50000000E+01  0.00000000E+00
  0.30000000E+02  0.50000000E+01  0.00000000E+00
  0.32500000E+02  0.50000000E+01  0.00000000E+00
  0.35000000E+02  0.50000000E+01  0.00000000E+00
  0.37500000E+02  0.50000000E+01  0.00000000E+00
  0.40000000E+02  0.50000000E+01  0.00000000E+00
  0.42500000E+02  0.50000000E+01  0.00000000E+00
  0.45000000E+02  0.50000000E+01  0.00000000E+00
  0.47500000E+02  0.50000000E+01  0.00000000E+00
  0.50000000E+02  0.50000000E+01  0.00000000E+00
  0.52500000E+02  0.50000000E+01  0.00000000E+00
  0.55000000E+02  0.50000000E+01  0.00000000E+00
  0.57500000E+02  0.50000000E+01  0.00000000E+00
  0.60000000E+02  0.50000000E+01  0.00000000E+00
  0.62500000E+02  0.50000000E+01  0.00000000E+00
  0.65000000E+02  0.50000000E+01  0.00000000E+00
  0.67500000E+02  0.50000000E+01  0.00000000E+00
  0.70000000E+02  0.50000000E+01  0.00000000E+00
  0.72500000E+02  0.50000000E+01  0.00000000E+00
  0.75000000E+02  0.50000000E+01  0.00000000E+00
  0.77500000E+02  0.50000000E+01  0.00000000E+00
  0.80000000E+02  0.50000000E+01  0.00000000E+00
  0.82500000E+02  0.50000000E+01  0.00000000E+00
  0.85000000E+02  0.50000000E+01  0.00000000E+00
  0.87500000E+02  0.50000000E+01  0.00000000E+00
  0.90000000E+02  0.50000000E+01  0.00000000E+00
  0.92500000E+02  0.50000000E+01  0.00000000E+00
  0.95000000E+02  0.50000000E+01  0.00000000E+00
  0.97500000E+02  0.50000000E+01  0.00000000E+00
  0.10000000E+03  0.50000000E+01  0.00000000E+00
  0.00000000E+00  0.25000000E+01  0.00000000E+00
  0.25000000E+01  0.25000000E+01  0.00000000E+00
  0.50000000E+01  0.25000000E+01  0.00000000E+00
  0.75000000E+01  0.25000000E+01  0.00000000E+00
  0.10000000E+02  0.25000000E+01  0.00000000E+00
  0.12500000E+02  0.25000000E+01  0.00000000E+00
  0.15000000E+02  0.25000000E+01  0.00000000E+00
  0.17500000E+02  0.25000000E+01  0.00000000E+00
  0.20000000E+02  0.25000000E+01  0.00000000E+00
  0.22500000E+02  0.25000000E+01  0.00000000E+00
  0.25000000E+02  0.25000000E+01  0.00000000E+00
  0.27500000E+02  0.25000000E+01  0.00000000E+00
  0.30000000E+02  0.25000000E+01  0.00000000E+00
  0.32500000E+02  0.25000000E+01  0.00000000E+00
  0.35000000E+02  0.25000000E+01  0.00000000E+00
  0.37500000E+02  0.25000000E+01  0.00000000E+00
  0.40000000E+02  0.25000000E+01  0.00000000E+00
  0.42500000E+02  0.25000000E+01  0.00000000E+00
  0.45000000E+02  0.25000000E+01  0.00000000E+00
  0.47500000E+02  0.25000000E+01  0.00000000E+00
  0.50000000E+02  0.25000000E+01  0.00000000E+00
  0.52500000E+02  0.25000000E+01  0.00000000E+00
  0.55000000E+02  0.25000000E+01  0.00000000E+00
  0.57500000E+02  0.25000000E+01  0.00000000E+00
  0.60000000E+02  0.25000000E+01  0.00000000E+00
  0.62500000E+02  0.25000000E+01  0.00000000E+00
  0.65000000E+02  0.25000000E+01  0.00000000E+00
  0.67500000E+02  0.25000000E+01  0.00000000E+00
  0.70000000E+02  0.25000000E+01  0.00000000E+00
  0.72500000E+02  0.25000000E+01  0.00000000E+00
  0.75000000E+02  0.25000000E+01  0.00000000E+00
  0.77500000E+02  0.25000000E+01  0.00000000E+00
  0.80000000E+02  0.25000000E+01  0.00000000E+00
  0.82500000E+02  0.25000000E+01  0.00000000E+00
  0.85000000E+02  0.25000000E+01  0.00000000E+00
  0.87500000E+02  0.25000000E+01  0.00000000E+00
  0.90000000E+02  0.25000000E+01  0.00000000E+00
  0.92500000E+02  0.25000000E+01  0.00000000E+00
  0.95000000E+02  0.25000000E+01  0.00000000E+00
  0.97500000E+02  0.25000000E+01  0.00000000E+00
  0.10000000E+03  0.25000000E+01  0.00000000E+00
  0.00000000E+00  0.00000000E+00  0.00000000E+00
  0.25000000E+01  0.00000000E+00  0.00000000E+00
  0.50000000E+01  0.00000000E+00  0.00000000E+00
  0.75000000E+01  0.00000000E+00  0.00000000E+00
  0.10000000E+02  0.00000000E+00  0.00000000E+00
  0.12500000E+02  0.00000000E+00  0.00000000E+00
  0.15000000E+02  0.00000000E+00  0.00000000E+00
  0.17500000E+02  0.00000000E+00  0.00000000E+00
  0.20000000E+02  0.00000000E+00  0.00000000E+00
  0.22500000E+02  0.00000000E+00  0.00000000E+00
  0.25000000E+02  0.00000000E+00  0.00000000E+00
  0.27500000E+02  0.00000000E+00  0.00000000E+00
  0.30000000E+02  0.00000000E+00  0.00000000E+00
  0.32500000E+02  0.00000000E+00  0.00000000E+00
  0.35000000E+02  0.00000000E+00  0.00000000E+00
  0.37500000E+02  0.00000000E+00  0.00000000E+00
  0.40000000E+02  0.00000000E+00  0.00000000E+00
  0.42500000E+02  0.00000000E+00  0.00000000E+00
  0.45000000E+02  0.00000000E+00  0.00000000E+00
  0.47500000E+02  0.00000000E+00  0.00000000E+00
  0.50000000E+02  0.00000000E+00  0.00000000E+00
  0.52500000E+02  0.00000000E+00  0.00000000E+00
  0.55000000E+02  0.00000000E+00  0.00000000E+00
  0.57500000E+02  0.00000000E+00  0.00000000E+00
  0.60000000E+02  0.00000000E+00  0.00000000E+00
  0.62500000E+02  0.00000000E+00  0.00000000E+00
  0.65000000E+02  0.00000000E+00  0.00000000E+00
  0.67500000E+02  0.00000000E+00  0.00000000E+00
  0.70000000E+02  0.00000000E+00  0.00000000E+00
  0.72500000E+02  0.00000000E+00  0.00000000E+00
  0.75000000E+02  0.00000000E+00  0.00000000E+00
  0.77500000E+02  0.00000000E+00  0.00000000E+00
  0.80000000E+02  0.00000000E+00  0.00000000E+00
  0.82500000E+02  0.00000000E+00  0.00000000E+00
  0.85000000E+02  0.00000000E+00  0.00000000E+00
  0.87500000E+02  0.00000000E+00  0.00000000E+00
  0.90000000E+02  0.00000000E+00  0.00000000E+00
  0.92500000E+02  0.00000000E+00  0.00000000E+00
  0.95000000E+02  0.00000000E+00  0.00000000E+00
  0.97500000E+02  0.00000000E+00  0.00000000E+00
  0.10000000E+03  0.00000000E+00  0.00000000E+00
CELLS      320    1280
       3       0      41      42
       3       0      42       1
       3       1      42      43
       3       1      43       2
       3       2      43      44
       3       2      44       3
       3       3      44      45
       3       3      45       4
       3       4      45      46
       3       4      46       5
       3       5      46      47
       3       5      47       6
       3       6      47      48
       3       6      48       7
       3       7      48      49
       3       7      49       8
       3       8      49      50
       3       8      50       9
       3       9      50      51
       3       9      51      10
       3      10      51      52
       3      10      52      11
       3      11      52      53
       3      11      53      12
       3      12      53      54
       3      12      54      13
       3      13      54      55
       3      13      55      14
       3      14      55      56
       3      14      56      15
       3      15      56      57
       3      15      57      16
       3      16      57      58
       3      16      58      17
       3      17      58      59
       3      17      59      18
       3      18      59      60
       3      18      60      19
       3      19      60      61
       3      19      61      20
       3      20      61      62
       3      20      62      21
       3      21      62      63
       3      21      63      22
       3      22      63      64
       3      22      64      23
       3      23      64      65
       3      23      65      24
       3      24      65      66
       3      24      66      25
       3      25      66      67
       3      25      67      26
       3      26      67      68
       3      26      68      27
       3      27      68      69
       3      27      69      28
       3      28      69      70
       3      28      70      29
       3      29      70      71
       3      29      71      30
       3      30      71      72
       3      30      72      31
       3      31      72      73
       3      31      73      32
       3      32      73      74
       3      32      74      33
       3      33      74      75
       3      33      75      34
       3      34      75      76
       3      34      76      35
       3      35      76      77
       3      35      77      36
       3      36      77      78
       3      36      78      37
       3      37      78      79
       3      37      79      38
       3      38      79      80
       3      38      80      39
       3      39      80      81
       3      39      81      40
       3      41      82      83
       3      41      83      42
       3      42      83      84
       3      42      84      43
       3      43      84      85
       3      43      85      44
       3      44      85      86
       3      44      86      45
       3      45      86      87
       3      45      87      46
       3      46      87      88
       3      46      88      47
       3      47      88      89
       3      47      89      48
       3      48      89      90
       3      48      90      49
       3      49      90      91
       3      49      91      50
       3      50      91      92
       3      50      92      51
       3      51      92      93
       3      51      93      52
       3      52      93      94
       3      52      94      53
       3      53      94      95
       3      53      95      54
       3      54      95      96
       3      54      96      55
       3      55      96      97
       3      55      97      56
       3      56      97      98
       3      56      98      57
       3      57      98      99
       3      57      99      58
       3      58      99     100
       3      58     100      59
       3      59     100     101
       3      59     101      60
       3      60     101     102
       3      60     102      61
       3      61     102     103
       3      61     103      62
       3      62     103     104
       3      62     104      63
       3      63     104     105
       3      63     105      64
       3      64     105     106
       3      64     106      65
       3      65     106     107
       3      65     107      66
       3      66     107     108
       3      66     108      67
       3      67     108     109
       3      67     109      68
       3      68     109     110
       3      68     110      69
       3      69     110     111
       3      69     111      70
       3      70     111     112
       3      70     112      71
       3      71     112     113
       3      71     113      72
       3      72     113     114
       3      72     114      73
       3      73     114     115
       3      73     115      74
       3      74     115     116
       3      74     116      75
       3      75     116     117
       3      75     117      76
       3      76     117     118
       3      76     118      77
       3      77     118     119
       3      77     119      78
       3      78     119     120
       3      78     120      79
       3      79     120     121
       3      79     121      80
       3      80     121     122
       3      80     122      81
       3      82     123     124
       3      82     124      83
       3      83     124     125
       3      83     125      84
       3      84     125     126
       3      84     126      85
       3      85     126     127
       3      85     127      86
       3      86     127     128
       3      86     128      87
       3      87     128     129
       3      87     129      88
       3      88     129     130
       3      88     130      89
       3      89     130     131
       3      89     131      90
       3      90     131     132
       3      90     132      91
       3      91     132     133
       3      91     133      92
       3      92     133     134
       3      92     134      93
       3      93     134     135
       3      93     135      94
       3      94     135     136
       3      94     136      95
       3      95     136     137
       3      95     137      96
       3      96     137     138
       3      96     138      97
       3      97     138     139
       3      97     139      98
       3      98     139     140
       3      98     140      99
       3      99     140     141
       3      99     141     100
       3     100     141     142
       3     100     142     101
       3     101     142     143
       3     101     143     102
       3     102     143     144
       3     102     144     103
       3     103     144     145
       3     103     145     104
       3     104     145     146
       3     104     146     105
       3     105     146     147
       3     105     147     106
       3     106     147     148
       3     106     148     107
       3     107     148     149
       3     107     149     108
       3     108     149     150
       3     108     150     109
       3     109     150     151
       3     109     151     110
       3     110     151     152
       3     110     152     111
       3     111     152     153
       3     111     153     112
       3     112     153     154
       3     112     154     113
       3     113     154     155
       3     113     155     114
       3     114     155     156
       3     114     156     115
       3     115     156     157
       3     115     157     116
       3     116     157     158
       3     116     158     117
       3     117     158     159
       3     117     159     118
       3     118     159     160
       3     118     160     119
       3     119     160     161
       3     119     161     120
       3     120     161     162
       3     120     162     121
       3     121     162     163
       3     121     163     122
       3     123     164     165
       3     123     165     124
       3     124     165     166
       3     124     166     125
       3     125     166     167
       3     125     167     126
       3     126     167     168
       3     126     168     127
       3     127     168     169
       3     127     169     128
       3     128     169     170
       3     128     170     129
       3     129     170     171
       3     129     171     130
       3     130     171     172
       3     130     172     131
       3     131     172     173
       3     131     173     132
       3     132     173     174
       3     132     174     133
       3     133     174     175
       3     133     175     134
       3     134     175     176
       3     134     176     135
       3     135     176     177
       3     135     177     136
       3     136     177     178
       3     136     178     137
       3     137     178     179
       3     137     179     138
       3     138     179     180
       3     138     180     139
       3     139     180     181
       3     139     181     140
       3     140     181     182
       3     140     182     141
       3     141     182     183
       3     141     183     142
       3     142     183     184
       3     142     184     143
       3     143     184     185
       3     143     185     144
       3     144     185     186
       3     144     186     145
       3     145     186     187
       3     145     187     146
       3     146     187     188
       3     146     188     147
       3     147     188     189
       3     147     189     148
       3     148     189     190
       3     148     190     149
       3     149     190     191
       3     149     191     150
       3     150     191     192
       3     150     192     151
       3     151     192     193
       3     151     193     152
       3     152     193     194
       3     152     194     153
       3     153     194     195
       3     153     195     154
       3     154     195     196
       3     154     196     155
       3     155     196     197
       3     155     197     156
       3     156     197     198
       3     156     198     157
       3     157     198     199
       3     157     199     158
       3     158     199     200
       3     158     200     159
       3     159     200     201
       3     159     201     160
       3     160     201     202
       3     160     202     161
       3     161     202     203
       3     161     203     162
       3     162     203     204
       3     162     204     163
CELL_TYPES      320
 5
 5
 5
 5
 5
 5
 5
 5
 5
 5
 5
 5
 5
 5
 5
 5
 5
 5
 5
 5
 5
 5
 5
 5
 5
 5
 5
 5
 5
 5
 5
 5
 5
 5
 5
 5
 5
 5
 5
 5
 5
 5
 5
 5
 5
 5
 5
 5
 5
 5
 5
 5
 5
 5
 5
 5
 5
 5
 5
 5
 5
 5
 5
 5
 5
 5
 5
 5
 5
 5
 5
 5
 5
 5
 5
 5
 5
 5
 5
 5
 5
 5
 5
 5
 5
 5
 5
 5
 5
 5
 5
 5
 5
 5
 5
 5
 5
 5
 5
 5
 5
 5
 5
 5
 5
 5
 5
 5
 5
 5
 5
 5
 5
 5
 5
 5
 5
 5
 5
 5
 5
 5
 5
 5
 5
 5
 5
 5
 5
 5
 5
 5
 5
 5
 5
 5
 5
 5
 5
 5
 5
 5
 5
 5
 5
 5
 5
 5
 5
 5
 5
 5
 5
 5
 5
 5
 5
 5
 5
 5
 5
 5
 5
 5
 5
 5
 5
 5
 5
 5
 5
 5
 5
 5
 5
 5
 5
 5
 5
 5
 5
 5
 5
 5
 5
 5
 5
 5
 5
 5
 5
 5
 5
 5
 5
 5
 5
 5
 5
 5
 5
 5
 5
 5
 5
 5
 5
 5
 5
 5
 5
 5
 5
 5
 5
 5
 5
 5
 5
 5
 5
 5
 5
 5
 5
 5
 5
 5
 5
 5
 5
 5
 5
 5
 5
 5
 5
 5
 5
 5
 5
 5
 5
 5
 5
 5
 5
 5
 5
 5
 5
 5
 5
 5
 5
 5
 5
 5
 5
 5
 5
 5
 5
 5
 5
 5
 5
 5
 5
 5
 5
 5
 5
 5
 5
 5
 5
 5
 5
 5
 5
 5
 5
 5
 5
 5
 5
 5
 5
 5
 5
 5
 5
 5
 5
 5
 5
 5
 5
 5
 5
 5
 5
 5
 5
 5
 5
 5
 5
 5
 5
 5
 5
 5
 5
 5
 5
 5
 5
 5
POINT_DATA      205
VECTORS Deslocamentos float
  0.00000000E+00 -0.15000032E-02  0.00000000E+00
  0.25000209E-02 -0.15000128E-02  0.00000000E+00
  0.50000404E-02 -0.15000303E-02  0.00000000E+00
  0.75000590E-02 -0.15000568E-02  0.00000000E+00
  0.10000077E-01 -0.15000923E-02  0.00000000E+00
  0.12500094E-01 -0.15001367E-02  0.00000000E+00
  0.15000111E-01 -0.15001895E-02  0.00000000E+00
  0.17500127E-01 -0.15002505E-02  0.00000000E+00
  0.20000142E-01 -0.15003193E-02  0.00000000E+00
  0.22500157E-01 -0.15003955E-02  0.00000000E+00
  0.25000171E-01 -0.15004789E-02  0.00000000E+00
  0.27500184E-01 -0.15005690E-02  0.00000000E+00
  0.30000196E-01 -0.15006655E-02  0.00000000E+00
  0.32500208E-01 -0.15007680E-02  0.00000000E+00
  0.35000219E-01 -0.15008762E-02  0.00000000E+00
  0.37500230E-01 -0.15009899E-02  0.00000000E+00
  0.40000239E-01 -0.15011086E-02  0.00000000E+00
  0.42500249E-01 -0.15012320E-02  0.00000000E+00
  0.45000257E-01 -0.15013596E-02  0.00000000E+00
  0.47500265E-01 -0.15014914E-02  0.00000000E+00
  0.50000272E-01 -0.15016271E-02  0.00000000E+00
  0.52500279E-01 -0.15017661E-02  0.00000000E+00
  0.55000285E-01 -0.15019083E-02  0.00000000E+00
  0.57500291E-01 -0.15020534E-02  0.00000000E+00
  0.60000296E-01 -0.15022010E-02  0.00000000E+00
  0.62500300E-01 -0.15023510E-02  0.00000000E+00
  0.65000304E-01 -0.15025030E-02  0.00000000E+00
  0.67500308E-01 -0.15026568E-02  0.00000000E+00
  0.70000311E-01 -0.15028123E-02  0.00000000E+00
  0.72500313E-01 -0.15029691E-02  0.00000000E+00
  0.75000315E-01 -0.15031270E-02  0.00000000E+00
  0.77500317E-01 -0.15032858E-02  0.00000000E+00
  0.80000319E-01 -0.15034455E-02  0.00000000E+00
  0.82500320E-01 -0.15036056E-02  0.00000000E+00
  0.85000321E-01 -0.15037663E-02  0.00000000E+00
  0.87500321E-01 -0.15039273E-02  0.00000000E+00
  0.90000322E-01 -0.15040884E-02  0.00000000E+00
  0.92500322E-01 -0.15042497E-02  0.00000000E+00
  0.95000322E-01 -0.15044109E-02  0.00000000E+00
  0.97500322E-01 -0.15045722E-02  0.00000000E+00
  0.10000032E+00 -0.15047334E-02  0.00000000E+00
  0.00000000E+00 -0.75000100E-03  0.00000000E+00
  0.25000095E-02 -0.75000850E-03  0.00000000E+00
  0.50000193E-02 -0.75002593E-03  0.00000000E+00
  0.75000288E-02 -0.75005257E-03  0.00000000E+00
  0.10000038E-01 -0.75008824E-03  0.00000000E+00
  0.12500047E-01 -0.75013279E-03  0.00000000E+00
  0.15000055E-01 -0.75018583E-03  0.00000000E+00
  0.17500063E-01 -0.75024698E-03  0.00000000E+00
  0.20000070E-01 -0.75031592E-03  0.00000000E+00
  0.22500078E-01 -0.75039230E-03  0.00000000E+00
  0.25000085E-01 -0.75047582E-03  0.00000000E+00
  0.27500091E-01 -0.75056606E-03  0.00000000E+00
  0.30000098E-01 -0.75066270E-03  0.00000000E+00
  0.32500103E-01 -0.75076538E-03  0.00000000E+00
  0.35000109E-01 -0.75087377E-03  0.00000000E+00
  0.37500114E-01 -0.75098751E-03  0.00000000E+00
  0.40000119E-01 -0.75110636E-03  0.00000000E+00
  0.42500124E-01 -0.75122992E-03  0.00000000E+00
  0.45000128E-01 -0.75135775E-03  0.00000000E+00
  0.47500132E-01 -0.75148967E-03  0.00000000E+00
  0.50000136E-01 -0.75162547E-03  0.00000000E+00
  0.52500139E-01 -0.75176463E-03  0.00000000E+00
  0.55000142E-01 -0.75190690E-03  0.00000000E+00
  0.57500145E-01 -0.75205212E-03  0.00000000E+00
  0.60000147E-01 -0.75219993E-03  0.00000000E+00
  0.62500150E-01 -0.75235001E-03  0.00000000E+00
  0.65000152E-01 -0.75250212E-03  0.00000000E+00
  0.67500153E-01 -0.75265605E-03  0.00000000E+00
  0.70000155E-01 -0.75281163E-03  0.00000000E+00
  0.72500156E-01 -0.75296850E-03  0.00000000E+00
  0.75000157E-01 -0.75312647E-03  0.00000000E+00
  0.77500158E-01 -0.75328541E-03  0.00000000E+00
  0.80000159E-01 -0.75344513E-03  0.00000000E+00
  0.82500160E-01 -0.75360539E-03  0.00000000E+00
  0.85000160E-01 -0.75376605E-03  0.00000000E+00
  0.87500161E-01 -0.75392710E-03  0.00000000E+00
  0.90000161E-01 -0.75408829E-03  0.00000000E+00
  0.92500161E-01 -0.75424963E-03  0.00000000E+00
  0.95000161E-01 -0.75441093E-03  0.00000000E+00
  0.97500161E-01 -0.75457220E-03  0.00000000E+00
  0.10000016E+00 -0.75473336E-03  0.00000000E+00
  0.00000000E+00  0.00000000E+00  0.00000000E+00
  0.24999996E-02 -0.76483443E-08  0.00000000E+00
  0.49999994E-02 -0.24580995E-07  0.00000000E+00
  0.74999994E-02 -0.51124976E-07  0.00000000E+00
  0.99999995E-02 -0.86831726E-07  0.00000000E+00
  0.12500000E-01 -0.13141980E-06  0.00000000E+00
  0.15000000E-01 -0.18452041E-06  0.00000000E+00
  0.17500000E-01 -0.24574404E-06  0.00000000E+00
  0.20000000E-01 -0.31472301E-06  0.00000000E+00
  0.22500000E-01 -0.39117443E-06  0.00000000E+00
  0.25000000E-01 -0.47474852E-06  0.00000000E+00
  0.27500000E-01 -0.56504911E-06  0.00000000E+00
  0.30000000E-01 -0.66174340E-06  0.00000000E+00
  0.32500000E-01 -0.76447910E-06  0.00000000E+00
  0.35000000E-01 -0.87290610E-06  0.00000000E+00
  0.37500000E-01 -0.98669456E-06  0.00000000E+00
  0.40000000E-01 -0.11055789E-05  0.00000000E+00
  0.42500000E-01 -0.12292194E-05  0.00000000E+00
  0.45000000E-01 -0.13571006E-05  0.00000000E+00
  0.47500000E-01 -0.14890670E-05  0.00000000E+00
  0.50000000E-01 -0.16248990E-05  0.00000000E+00
  0.52500000E-01 -0.17641175E-05  0.00000000E+00
  0.55000000E-01 -0.19064299E-05  0.00000000E+00
  0.57500000E-01 -0.20516653E-05  0.00000000E+00
  0.60000000E-01 -0.21995070E-05  0.00000000E+00
  0.62500000E-01 -0.23496502E-05  0.00000000E+00
  0.65000000E-01 -0.25018422E-05  0.00000000E+00
  0.67500000E-01 -0.26558178E-05  0.00000000E+00
  0.70000000E-01 -0.28113773E-05  0.00000000E+00
  0.72500000E-01 -0.29682756E-05  0.00000000E+00
  0.75000000E-01 -0.31262727E-05  0.00000000E+00
  0.77500000E-01 -0.32852432E-05  0.00000000E+00
  0.80000000E-01 -0.34450059E-05  0.00000000E+00
  0.82500000E-01 -0.36052916E-05  0.00000000E+00
  0.85000000E-01 -0.37659563E-05  0.00000000E+00
  0.87500000E-01 -0.39270343E-05  0.00000000E+00
  0.90000000E-01 -0.40882928E-05  0.00000000E+00
  0.92500000E-01 -0.42495968E-05  0.00000000E+00
  0.95000000E-01 -0.44109125E-05  0.00000000E+00
  0.97500000E-01 -0.45722061E-05  0.00000000E+00
  0.10000000E+00 -0.47333780E-05  0.00000000E+00
  0.00000000E+00  0.74999547E-03  0.00000000E+00
  0.24999893E-02  0.74999011E-03  0.00000000E+00
  0.49999795E-02  0.74997382E-03  0.00000000E+00
  0.74999702E-02  0.74994755E-03  0.00000000E+00
  0.99999611E-02  0.74991193E-03  0.00000000E+00
  0.12499952E-01  0.74986741E-03  0.00000000E+00
  0.14999944E-01  0.74981435E-03  0.00000000E+00
  0.17499936E-01  0.74975316E-03  0.00000000E+00
  0.19999929E-01  0.74968424E-03  0.00000000E+00
  0.22499921E-01  0.74960783E-03  0.00000000E+00
  0.24999915E-01  0.74952428E-03  0.00000000E+00
  0.27499908E-01  0.74943402E-03  0.00000000E+00
  0.29999902E-01  0.74933740E-03  0.00000000E+00
  0.32499896E-01  0.74923471E-03  0.00000000E+00
  0.34999890E-01  0.74912633E-03  0.00000000E+00
  0.37499885E-01  0.74901259E-03  0.00000000E+00
  0.39999880E-01  0.74889376E-03  0.00000000E+00
  0.42499876E-01  0.74877017E-03  0.00000000E+00
  0.44999871E-01  0.74864232E-03  0.00000000E+00
  0.47499868E-01  0.74851041E-03  0.00000000E+00
  0.49999864E-01  0.74837462E-03  0.00000000E+00
  0.52499861E-01  0.74823543E-03  0.00000000E+00
  0.54999858E-01  0.74809314E-03  0.00000000E+00
  0.57499855E-01  0.74794796E-03  0.00000000E+00
  0.59999852E-01  0.74780016E-03  0.00000000E+00
  0.62499850E-01  0.74765005E-03  0.00000000E+00
  0.64999848E-01  0.74749791E-03  0.00000000E+00
  0.67499846E-01  0.74734400E-03  0.00000000E+00
  0.69999845E-01  0.74718847E-03  0.00000000E+00
  0.72499844E-01  0.74703157E-03  0.00000000E+00
  0.74999842E-01  0.74687361E-03  0.00000000E+00
  0.77499842E-01  0.74671466E-03  0.00000000E+00
  0.79999841E-01  0.74655489E-03  0.00000000E+00
  0.82499840E-01  0.74639462E-03  0.00000000E+00
  0.84999840E-01  0.74623398E-03  0.00000000E+00
  0.87499839E-01  0.74607296E-03  0.00000000E+00
  0.89999839E-01  0.74591167E-03  0.00000000E+00
  0.92499839E-01  0.74575036E-03  0.00000000E+00
  0.94999839E-01  0.74558906E-03  0.00000000E+00
  0.97499839E-01  0.74542779E-03  0.00000000E+00
  0.99999839E-01  0.74526661E-03  0.00000000E+00
  0.00000000E+00  0.14999881E-02  0.00000000E+00
  0.24999792E-02  0.14999851E-02  0.00000000E+00
  0.49999593E-02  0.14999694E-02  0.00000000E+00
  0.74999403E-02  0.14999435E-02  0.00000000E+00
  0.99999221E-02  0.14999080E-02  0.00000000E+00
  0.12499905E-01  0.14998637E-02  0.00000000E+00
  0.14999888E-01  0.14998108E-02  0.00000000E+00
  0.17499872E-01  0.14997497E-02  0.00000000E+00
  0.19999857E-01  0.14996809E-02  0.00000000E+00
  0.22499842E-01  0.14996047E-02  0.00000000E+00
  0.24999829E-01  0.14995213E-02  0.00000000E+00
  0.27499816E-01  0.14994312E-02  0.00000000E+00
  0.29999803E-01  0.14993348E-02  0.00000000E+00
  0.32499791E-01  0.14992322E-02  0.00000000E+00
  0.34999780E-01  0.14991239E-02  0.00000000E+00
  0.37499770E-01  0.14990104E-02  0.00000000E+00
  0.39999760E-01  0.14988917E-02  0.00000000E+00
  0.42499751E-01  0.14987682E-02  0.00000000E+00
  0.44999742E-01  0.14986405E-02  0.00000000E+00
  0.47499735E-01  0.14985087E-02  0.00000000E+00
  0.49999727E-01  0.14983731E-02  0.00000000E+00
  0.52499721E-01  0.14982340E-02  0.00000000E+00
  0.54999715E-01  0.14980918E-02  0.00000000E+00
  0.57499709E-01  0.14979468E-02  0.00000000E+00
  0.59999704E-01  0.14977991E-02  0.00000000E+00
  0.62499700E-01  0.14976492E-02  0.00000000E+00
  0.64999696E-01  0.14974972E-02  0.00000000E+00
  0.67499692E-01  0.14973433E-02  0.00000000E+00
  0.69999689E-01  0.14971879E-02  0.00000000E+00
  0.72499687E-01  0.14970311E-02  0.00000000E+00
  0.74999685E-01  0.14968732E-02  0.00000000E+00
  0.77499683E-01  0.14967143E-02  0.00000000E+00
  0.79999681E-01  0.14965546E-02  0.00000000E+00
  0.82499680E-01  0.14963944E-02  0.00000000E+00
  0.84999679E-01  0.14962338E-02  0.00000000E+00
  0.87499679E-01  0.14960728E-02  0.00000000E+00
  0.89999678E-01  0.14959116E-02  0.00000000E+00
  0.92499678E-01  0.14957503E-02  0.00000000E+00
  0.94999678E-01  0.14955890E-02  0.00000000E+00
  0.97499678E-01  0.14954278E-02  0.00000000E+00
  0.99999678E-01  0.14952666E-02  0.00000000E+00
SCALARS Sigma_xx float 1
LOOKUP_TABLE default
  0.21000131E+02
  0.21000142E+02
  0.21000134E+02
  0.21000129E+02
  0.21000125E+02
  0.21000120E+02
  0.21000115E+02
  0.21000110E+02
  0.21000105E+02
  0.21000100E+02
  0.21000095E+02
  0.21000090E+02
  0.21000085E+02
  0.21000080E+02
  0.21000076E+02
  0.21000071E+02
  0.21000067E+02
  0.21000062E+02
  0.21000058E+02
  0.21000053E+02
  0.21000049E+02
  0.21000045E+02
  0.21000041E+02
  0.21000037E+02
  0.21000033E+02
  0.21000029E+02
  0.21000026E+02
  0.21000023E+02
  0.21000020E+02
  0.21000017E+02
  0.21000014E+02
  0.21000012E+02
  0.21000009E+02
  0.21000007E+02
  0.21000005E+02
  0.21000004E+02
  0.21000002E+02
  0.21000001E+02
  0.21000000E+02
  0.21000000E+02
  0.21000000E+02
  0.21000053E+02
  0.21000085E+02
  0.21000081E+02
  0.21000078E+02
  0.21000075E+02
  0.21000072E+02
  0.21000069E+02
  0.21000066E+02
  0.21000063E+02
  0.21000060E+02
  0.21000057E+02
  0.21000054E+02
  0.21000051E+02
  0.21000049E+02
  0.21000046E+02
  0.21000043E+02
  0.21000040E+02
  0.21000037E+02
  0.21000035E+02
  0.21000033E+02
  0.21000030E+02
  0.21000027E+02
  0.21000025E+02
  0.21000023E+02
  0.21000020E+02
  0.21000018E+02
  0.21000016E+02
  0.21000014E+02
  0.21000012E+02
  0.21000010E+02
  0.21000009E+02
  0.21000007E+02
  0.21000006E+02
  0.21000005E+02
  0.21000004E+02
  0.21000003E+02
  0.21000002E+02
  0.21000001E+02
  0.21000000E+02
  0.21000000E+02
  0.21000000E+02
  0.20999970E+02
  0.20999999E+02
  0.21000001E+02
  0.21000001E+02
  0.21000001E+02
  0.21000001E+02
  0.21000001E+02
  0.21000000E+02
  0.21000000E+02
  0.21000000E+02
  0.21000001E+02
  0.21000001E+02
  0.21000001E+02
  0.21000001E+02
  0.21000000E+02
  0.21000000E+02
  0.21000001E+02
  0.21000000E+02
  0.21000000E+02
  0.21000000E+02
  0.21000000E+02
  0.21000000E+02
  0.21000000E+02
  0.21000000E+02
  0.21000000E+02
  0.21000000E+02
  0.21000000E+02
  0.21000000E+02
  0.21000000E+02
  0.21000000E+02
  0.21000000E+02
  0.21000000E+02
  0.21000000E+02
  0.21000000E+02
  0.21000000E+02
  0.21000000E+02
  0.21000000E+02
  0.21000000E+02
  0.21000000E+02
  0.21000000E+02
  0.21000000E+02
  0.20999886E+02
  0.20999917E+02
  0.20999920E+02
  0.20999923E+02
  0.20999926E+02
  0.20999929E+02
  0.20999932E+02
  0.20999935E+02
  0.20999938E+02
  0.20999941E+02
  0.20999944E+02
  0.20999947E+02
  0.20999950E+02
  0.20999952E+02
  0.20999955E+02
  0.20999958E+02
  0.20999961E+02
  0.20999963E+02
  0.20999966E+02
  0.20999969E+02
  0.20999971E+02
  0.20999974E+02
  0.20999976E+02
  0.20999978E+02
  0.20999981E+02
  0.20999983E+02
  0.20999985E+02
  0.20999987E+02
  0.20999988E+02
  0.20999990E+02
  0.20999992E+02
  0.20999993E+02
  0.20999994E+02
  0.20999996E+02
  0.20999997E+02
  0.20999998E+02
  0.20999999E+02
  0.20999999E+02
  0.21000000E+02
  0.21000000E+02
  0.21000000E+02
  0.20999828E+02
  0.20999858E+02
  0.20999863E+02
  0.20999868E+02
  0.20999874E+02
  0.20999879E+02
  0.20999885E+02
  0.20999890E+02
  0.20999894E+02
  0.20999899E+02
  0.20999904E+02
  0.20999909E+02
  0.20999914E+02
  0.20999919E+02
  0.20999923E+02
  0.20999928E+02
  0.20999933E+02
  0.20999938E+02
  0.20999942E+02
  0.20999946E+02
  0.20999950E+02
  0.20999955E+02
  0.20999959E+02
  0.20999963E+02
  0.20999966E+02
  0.20999970E+02
  0.20999973E+02
  0.20999977E+02
  0.20999980E+02
  0.20999983E+02
  0.20999986E+02
  0.20999988E+02
  0.20999990E+02
  0.20999992E+02
  0.20999994E+02
  0.20999996E+02
  0.20999997E+02
  0.20999999E+02
  0.21000000E+02
  0.21000000E+02
  0.21000000E+02
SCALARS Sigma_yy float 1
LOOKUP_TABLE default
  0.11961741E-04
  0.63196440E-05
  0.41971296E-05
  0.38268130E-05
  0.39281796E-05
  0.38512311E-05
  0.36553125E-05
  0.35024905E-05
  0.33159765E-05
  0.30576400E-05
  0.28374400E-05
  0.26525172E-05
  0.26258758E-05
  0.25626661E-05
  0.23433943E-05
  0.20438083E-05
  0.19266467E-05
  0.19224061E-05
  0.19927780E-05
  0.17435928E-05
  0.14271773E-05
  0.12846564E-05
  0.11763582E-05
  0.11087609E-05
  0.10303699E-05
  0.83283233E-06
  0.65101517E-06
  0.56348150E-06
  0.45542564E-06
  0.39051197E-06
  0.37385836E-06
  0.27012370E-06
  0.18669307E-06
  0.20786773E-07
 -0.35114942E-06
 -0.60812478E-07
  0.11456085E-06
  0.48337694E-07
  0.24111679E-07
  0.57296598E-07
 -0.46923596E-07
  0.46536454E-05
  0.59861783E-05
  0.37985366E-06
 -0.52696391E-06
 -0.61260319E-06
 -0.57790003E-06
 -0.55298739E-06
 -0.52183346E-06
 -0.52682304E-06
 -0.49945695E-06
 -0.51249282E-06
 -0.52678696E-06
 -0.47861911E-06
 -0.41238247E-06
 -0.41899095E-06
 -0.48758659E-06
 -0.52701246E-06
 -0.43074103E-06
 -0.27913505E-06
 -0.24785911E-06
 -0.35621994E-06
 -0.33641107E-06
 -0.37959270E-06
 -0.46605590E-06
 -0.42127605E-06
 -0.28860379E-06
 -0.17215139E-06
 -0.19751245E-06
 -0.31576103E-06
 -0.33714570E-06
 -0.32814012E-06
 -0.26557160E-06
 -0.21522472E-06
 -0.16566112E-06
 -0.35548061E-06
 -0.25062213E-06
  0.79099814E-08
 -0.75487719E-07
 -0.26785675E-07
  0.79013561E-07
  0.87202549E-07
  0.70776002E-05
  0.45244577E-05
  0.15874424E-05
 -0.25211220E-06
 -0.68166161E-06
 -0.78582597E-06
 -0.72809048E-06
 -0.63500516E-06
 -0.63649643E-06
 -0.51968592E-06
 -0.38679888E-06
 -0.37469256E-06
 -0.42628814E-06
 -0.36864599E-06
 -0.43239884E-06
 -0.43081246E-06
 -0.44743553E-06
 -0.38408447E-06
 -0.30340994E-06
 -0.31524214E-06
 -0.34443136E-06
 -0.21838563E-06
 -0.16590504E-06
 -0.30087937E-06
 -0.34689161E-06
 -0.31944142E-06
 -0.24932915E-06
 -0.22790338E-06
 -0.29066431E-06
 -0.28389313E-06
 -0.34945678E-06
 -0.25559515E-06
 -0.12773343E-06
 -0.56901000E-07
 -0.12198596E-06
 -0.16692437E-06
  0.17504727E-06
  0.11855773E-06
  0.52525104E-07
  0.60618185E-07
  0.13025565E-06
  0.12982667E-04
  0.77455102E-05
  0.16487337E-05
 -0.12260707E-06
 -0.57790214E-06
 -0.70338427E-06
 -0.67521978E-06
 -0.60601368E-06
 -0.58753266E-06
 -0.63435231E-06
 -0.54975734E-06
 -0.46954126E-06
 -0.48731171E-06
 -0.39770161E-06
 -0.35237268E-06
 -0.46275000E-06
 -0.47195051E-06
 -0.36774562E-06
 -0.34263505E-06
 -0.34397318E-06
 -0.27173826E-06
 -0.10194305E-06
 -0.78854201E-07
 -0.18339274E-06
 -0.30539514E-06
 -0.35854741E-06
 -0.44084864E-06
 -0.47416580E-06
 -0.37418341E-06
 -0.28096749E-06
 -0.33700877E-06
 -0.27208780E-06
 -0.93345255E-07
 -0.35963132E-07
  0.14312752E-08
 -0.14906192E-06
 -0.77758675E-07
  0.12201455E-06
  0.13010460E-06
  0.73460456E-07
  0.97031889E-07
  0.10150810E-04
  0.59997091E-05
 -0.25472685E-05
 -0.42891781E-05
 -0.43172201E-05
 -0.41528767E-05
 -0.39880056E-05
 -0.38643016E-05
 -0.36454800E-05
 -0.35477637E-05
 -0.34989893E-05
 -0.33328612E-05
 -0.31635000E-05
 -0.28622972E-05
 -0.25161952E-05
 -0.23790268E-05
 -0.24387276E-05
 -0.21471915E-05
 -0.19596574E-05
 -0.18602073E-05
 -0.16562500E-05
 -0.12284229E-05
 -0.10419826E-05
 -0.10522533E-05
 -0.11147581E-05
 -0.12353470E-05
 -0.12483562E-05
 -0.11643809E-05
 -0.78656815E-06
 -0.53933849E-06
 -0.53180005E-06
 -0.56063270E-06
 -0.30960648E-06
 -0.19156849E-06
 -0.90880752E-07
 -0.40332558E-07
 -0.13084853E-06
  0.11934675E-07
  0.77147212E-07
  0.23382018E-07
  0.49353604E-07
SCALARS Sigma_xy float 1
LOOKUP_TABLE default
 -0.92414717E-05
 -0.69669261E-06
  0.18443014E-05
  0.20608260E-05
  0.18116498E-05
  0.14745919E-05
  0.12880655E-05
  0.11747560E-05
  0.98995648E-06
  0.69956229E-06
  0.52031979E-06
  0.35471144E-06
  0.26446754E-06
  0.89072440E-07
 -0.67944798E-07
 -0.36813564E-06
 -0.52250039E-06
 -0.40075694E-06
 -0.39020924E-06
 -0.78216728E-06
 -0.87834445E-06
 -0.80643129E-06
 -0.97768791E-06
 -0.10786826E-05
 -0.10217901E-05
 -0.96056478E-06
 -0.96976852E-06
 -0.10923844E-05
 -0.11356482E-05
 -0.10674280E-05
 -0.10002039E-05
 -0.10526144E-05
 -0.10098226E-05
 -0.94209052E-06
 -0.93676397E-06
 -0.68679657E-06
 -0.65507802E-06
 -0.45241415E-06
 -0.35588909E-06
 -0.18204276E-06
 -0.97577948E-07
 -0.13675122E-04
 -0.74073295E-05
 -0.50670456E-05
 -0.44442457E-05
 -0.44088355E-05
 -0.45565418E-05
 -0.45899566E-05
 -0.45696747E-05
 -0.45911412E-05
 -0.46675811E-05
 -0.47083427E-05
 -0.46757655E-05
 -0.46278910E-05
 -0.45665152E-05
 -0.45070520E-05
 -0.45260892E-05
 -0.45818823E-05
 -0.43231634E-05
 -0.40562854E-05
 -0.41318315E-05
 -0.40747218E-05
 -0.37551456E-05
 -0.36874465E-05
 -0.36748866E-05
 -0.34990203E-05
 -0.32954518E-05
 -0.31319526E-05
 -0.30391944E-05
 -0.28772120E-05
 -0.25915375E-05
 -0.23884499E-05
 -0.22089586E-05
 -0.19534747E-05
 -0.16301179E-05
 -0.15503279E-05
 -0.13457827E-05
 -0.10470301E-05
 -0.81159266E-06
 -0.52075080E-06
 -0.30967111E-06
 -0.13304791E-06
 -0.11204321E-04
 -0.68130626E-05
 -0.63630336E-05
 -0.60538133E-05
 -0.59093925E-05
 -0.59856795E-05
 -0.60085516E-05
 -0.59516085E-05
 -0.60193081E-05
 -0.61554412E-05
 -0.61772904E-05
 -0.61011774E-05
 -0.60949639E-05
 -0.59908821E-05
 -0.59065657E-05
 -0.58846127E-05
 -0.59344651E-05
 -0.56714875E-05
 -0.53676490E-05
 -0.54415359E-05
 -0.53537249E-05
 -0.49682505E-05
 -0.47881735E-05
 -0.47435493E-05
 -0.45749365E-05
 -0.44070622E-05
 -0.42236538E-05
 -0.40832182E-05
 -0.39039110E-05
 -0.34922437E-05
 -0.32332988E-05
 -0.30561850E-05
 -0.26791525E-05
 -0.21503273E-05
 -0.19059009E-05
 -0.17997095E-05
 -0.13519125E-05
 -0.10155575E-05
 -0.70191480E-06
 -0.39186540E-06
 -0.18908503E-06
 -0.39276104E-05
 -0.30606002E-05
 -0.42049604E-05
 -0.46733397E-05
 -0.46282721E-05
 -0.46677020E-05
 -0.46792870E-05
 -0.45751978E-05
 -0.45309100E-05
 -0.46671912E-05
 -0.47075887E-05
 -0.46201639E-05
 -0.46099375E-05
 -0.45356117E-05
 -0.44077763E-05
 -0.43951345E-05
 -0.45183689E-05
 -0.43562266E-05
 -0.40337548E-05
 -0.40957961E-05
 -0.41294806E-05
 -0.38361111E-05
 -0.36638418E-05
 -0.36626512E-05
 -0.35872567E-05
 -0.33829313E-05
 -0.31665403E-05
 -0.30584674E-05
 -0.29886044E-05
 -0.27060272E-05
 -0.25105137E-05
 -0.24760044E-05
 -0.21627988E-05
 -0.16983525E-05
 -0.14669497E-05
 -0.14384487E-05
 -0.11453431E-05
 -0.78543651E-06
 -0.58439417E-06
 -0.33798280E-06
 -0.13325979E-06
 -0.97923215E-05
 -0.41262649E-05
 -0.80001150E-05
 -0.84457195E-05
 -0.81187715E-05
 -0.77728727E-05
 -0.76135462E-05
 -0.72938733E-05
 -0.70044601E-05
 -0.68671619E-05
 -0.67097255E-05
 -0.64902842E-05
 -0.63315238E-05
 -0.61248799E-05
 -0.57940213E-05
 -0.55502787E-05
 -0.54786989E-05
 -0.53510652E-05
 -0.49026634E-05
 -0.46972693E-05
 -0.46609098E-05
 -0.42981354E-05
 -0.39393505E-05
 -0.37971460E-05
 -0.37079223E-05
 -0.34580761E-05
 -0.31088472E-05
 -0.28534416E-05
 -0.27182490E-05
 -0.24190613E-05
 -0.21019434E-05
 -0.21377550E-05
 -0.18960682E-05
 -0.13557876E-05
 -0.11234513E-05
 -0.10942285E-05
 -0.94750837E-06
 -0.60374949E-06
 -0.43954036E-06
 -0.31870412E-06
 -0.13615793E-06
SCALARS Von_Mises float 1
LOOKUP_TABLE default
  0.21000125E+02
  0.21000139E+02
  0.21000132E+02
  0.21000127E+02
  0.21000123E+02
  0.21000118E+02
  0.21000113E+02
  0.21000108E+02
  0.21000103E+02
  0.21000098E+02
  0.21000094E+02
  0.21000089E+02
  0.21000084E+02
  0.21000079E+02
  0.21000075E+02
  0.21000070E+02
  0.21000066E+02
  0.21000061E+02
  0.21000057E+02
  0.21000053E+02
  0.21000048E+02
  0.21000044E+02
  0.21000040E+02
  0.21000036E+02
  0.21000032E+02
  0.21000029E+02
  0.21000026E+02
  0.21000023E+02
  0.21000019E+02
  0.21000017E+02
  0.21000014E+02
  0.21000011E+02
  0.21000009E+02
  0.21000007E+02
  0.21000005E+02
  0.21000004E+02
  0.21000002E+02
  0.21000001E+02
  0.21000000E+02
  0.21000000E+02
  0.21000000E+02
  0.21000051E+02
  0.21000082E+02
  0.21000081E+02
  0.21000078E+02
  0.21000075E+02
  0.21000072E+02
  0.21000069E+02
  0.21000066E+02
  0.21000063E+02
  0.21000060E+02
  0.21000057E+02
  0.21000055E+02
  0.21000052E+02
  0.21000049E+02
  0.21000046E+02
  0.21000043E+02
  0.21000041E+02
  0.21000038E+02
  0.21000035E+02
  0.21000033E+02
  0.21000030E+02
  0.21000027E+02
  0.21000025E+02
  0.21000023E+02
  0.21000020E+02
  0.21000018E+02
  0.21000016E+02
  0.21000014E+02
  0.21000013E+02
  0.21000011E+02
  0.21000009E+02
  0.21000007E+02
  0.21000006E+02
  0.21000005E+02
  0.21000004E+02
  0.21000003E+02
  0.21000002E+02
  0.21000001E+02
  0.21000000E+02
  0.21000000E+02
  0.21000000E+02
  0.20999966E+02
  0.20999997E+02
  0.21000000E+02
  0.21000001E+02
  0.21000001E+02
  0.21000001E+02
  0.21000001E+02
  0.21000001E+02
  0.21000001E+02
  0.21000001E+02
  0.21000001E+02
  0.21000001E+02
  0.21000001E+02
  0.21000001E+02
  0.21000001E+02
  0.21000001E+02
  0.21000001E+02
  0.21000001E+02
  0.21000001E+02
  0.21000001E+02
  0.21000001E+02
  0.21000001E+02
  0.21000001E+02
  0.21000001E+02
  0.21000001E+02
  0.21000000E+02
  0.21000000E+02
  0.21000000E+02
  0.21000001E+02
  0.21000001E+02
  0.21000000E+02
  0.21000000E+02
  0.21000000E+02
  0.21000000E+02
  0.21000000E+02
  0.21000000E+02
  0.21000000E+02
  0.21000000E+02
  0.21000000E+02
  0.21000000E+02
  0.21000000E+02
  0.20999879E+02
  0.20999913E+02
  0.20999919E+02
  0.20999923E+02
  0.20999926E+02
  0.20999930E+02
  0.20999933E+02
  0.20999935E+02
  0.20999938E+02
  0.20999941E+02
  0.20999944E+02
  0.20999947E+02
  0.20999950E+02
  0.20999953E+02
  0.20999955E+02
  0.20999958E+02
  0.20999961E+02
  0.20999964E+02
  0.20999966E+02
  0.20999969E+02
  0.20999971E+02
  0.20999974E+02
  0.20999976E+02
  0.20999978E+02
  0.20999981E+02
  0.20999983E+02
  0.20999985E+02
  0.20999987E+02
  0.20999989E+02
  0.20999990E+02
  0.20999992E+02
  0.20999993E+02
  0.20999995E+02
  0.20999996E+02
  0.20999997E+02
  0.20999998E+02
  0.20999999E+02
  0.20999999E+02
  0.21000000E+02
  0.21000000E+02
  0.21000000E+02
  0.20999823E+02
  0.20999855E+02
  0.20999864E+02
  0.20999871E+02
  0.20999876E+02
  0.20999881E+02
  0.20999887E+02
  0.20999891E+02
  0.20999896E+02
  0.20999901E+02
  0.20999906E+02
  0.20999911E+02
  0.20999915E+02
  0.20999920E+02
  0.20999925E+02
  0.20999929E+02
  0.20999934E+02
  0.20999939E+02
  0.20999943E+02
  0.20999947E+02
  0.20999951E+02
  0.20999955E+02
  0.20999959E+02
  0.20999963E+02
  0.20999967E+02
  0.20999971E+02
  0.20999974E+02
  0.20999977E+02
  0.20999980E+02
  0.20999983E+02
  0.20999986E+02
  0.20999988E+02
  0.20999990E+02
  0.20999993E+02
  0.20999994E+02
  0.20999996E+02
  0.20999997E+02
  0.20999999E+02
  0.21000000E+02
  0.21000000E+02
  0.21000000E+02
